<?xml version="1.0" encoding="UTF-8"?>
<!DOCTYPE svg PUBLIC "-//W3C//DTD SVG 1.1//EN" "http://www.w3.org/Graphics/SVG/1.1/DTD/svg11.dtd">
<!-- Creator: CorelDRAW -->
<svg xmlns="http://www.w3.org/2000/svg" xml:space="preserve" width="175mm" height="62mm" version="1.1" style="shape-rendering:geometricPrecision; text-rendering:geometricPrecision; image-rendering:optimizeQuality; fill-rule:evenodd; clip-rule:evenodd"
viewBox="0 0 17500 6200"
 xmlns:xlink="http://www.w3.org/1999/xlink"
 xmlns:xodm="http://www.corel.com/coreldraw/odm/2003">
 <defs>
  <style type="text/css">
   <![CDATA[
    .fil2 {fill:#91C67D}
    .fil1 {fill:#8BC378}
    .fil0 {fill:#12457B}
   ]]>
  </style>
 </defs>
 <g id="Layer_x0020_1">
  <metadata id="CorelCorpID_0Corel-Layer"/>
  <path class="fil0" d="M4759.61 3312.56l-1825.91 -987.89 -2903.7 3302.15 980.23 -9.58 2082.03 -2291.18 875.34 458.71 -1400.79 1330.17 1016.89 21.62 1129.98 -1042.38c0,0 565.52,-389.55 45.93,-781.62z"/>
  <path class="fil0" d="M3839.23 2468.79c0.31,0.32 2.12,-1.07 4,-1.79 6.2,-2.38 20.02,-8.82 41.28,-18.6 185.96,-85.5 883.14,-447.37 994.95,-581.69 365.24,-140.09 633.23,-574.84 633.23,-574.84l684.54 4.07c0,0 -552.22,1704.92 -2358,1172.85z"/>
  <ellipse class="fil1" cx="4218.39" cy="839.91" rx="696.47" ry="688.56"/>
  <path class="fil2" d="M9540.45 4801.26c103.15,-105.23 139.88,-241.42 139.88,-386.2 0,-144.17 -36.41,-280.16 -139.74,-384.53 -91.52,-92.44 -200.39,-140.98 -330.74,-140.98 -129.76,0 -238.94,47.04 -331.04,138.21 -103.68,102.63 -139.45,238.25 -139.45,381.19 0,145.73 37.22,282.44 140.15,389.53 90.66,94.33 199.09,145.15 330.34,145.15 130.64,0 239.37,-49.29 330.6,-142.37zm2072.52 0c103.15,-105.23 139.88,-241.42 139.88,-386.2 0,-144.17 -36.41,-280.16 -139.74,-384.53 -91.52,-92.44 -200.39,-140.98 -330.74,-140.98 -129.76,0 -238.94,47.04 -331.04,138.21 -103.68,102.63 -139.45,238.25 -139.45,381.19 0,145.73 37.22,282.44 140.15,389.53 90.66,94.33 199.09,145.15 330.34,145.15 130.64,0 239.37,-49.29 330.6,-142.37zm-4464.15 145.42l966.95 0 0 352.06 -1480.02 0 0 -323.62 964.01 -1528.81 -964.01 0 0 -352.05 1480.02 0 0 323.64 -966.95 1528.78zm2531.51 -1199.37l0 -212.87 431.54 0 0 1764.3 -431.54 0 0 -224.18c-48.84,59.61 -106.94,110.53 -174.23,152.42 -112.22,69.85 -238.09,99.27 -369.62,99.27 -235.25,0 -434.42,-86.68 -594.78,-258.8 -170.27,-182.77 -239.99,-409.32 -239.99,-656.97 0,-245.36 68,-471.25 238.72,-651.13 161.4,-170.06 361.93,-252.42 596.05,-252.42 131.15,0 257.26,28.33 370.49,95.81 66.34,39.54 124.49,87.6 173.36,144.57zm2072.52 0l0 -212.87 431.54 0 0 1751.81c0,231.03 -67.47,440.19 -229.9,607.16 -164.76,169.37 -377.47,236.78 -610.99,236.78 -215.28,0 -434.54,-41.17 -613.11,-167.86 -159.92,-113.46 -251.73,-268.89 -273.38,-463.8l-4.93 -44.42 419.81 0 8.59 28.43c25.15,83.18 79.28,144.41 152.52,190.08 90.73,56.57 198.92,74.95 304.39,74.95 115.07,0 215.24,-35.61 297.43,-116.84 91.79,-90.7 118.03,-219.73 118.03,-344.48l0 -211.69c-48.84,59.61 -106.94,110.53 -174.23,152.42 -112.22,69.85 -238.09,99.27 -369.62,99.27 -235.25,0 -434.42,-86.68 -594.78,-258.8 -170.27,-182.77 -239.99,-409.32 -239.99,-656.97 0,-245.36 68,-471.25 238.72,-651.13 161.4,-170.06 361.93,-252.42 596.05,-252.42 131.15,0 257.26,28.33 370.49,95.81 66.34,39.54 124.49,87.6 173.36,144.57z"/>
  <path class="fil0" d="M14914.66 4255.84c-8.65,-100.89 -45.13,-190.88 -122.65,-262.23 -84.78,-78.04 -185.4,-113.23 -299.99,-113.23 -113.24,0 -212.58,34.32 -294.9,112.76 -75.45,71.9 -115.05,162.58 -130.71,262.7l848.25 0zm1939.09 542.5c103.55,-106.66 141.54,-242.98 141.54,-389.39 0,-142.94 -35.77,-278.56 -139.45,-381.19 -92.49,-91.56 -202.31,-138.21 -332.57,-138.21 -130.85,0 -240.36,48.14 -332.27,140.98 -103.33,104.37 -139.74,240.36 -139.74,384.53 0,144.78 36.73,280.97 139.88,386.2 91.23,93.08 199.96,142.37 330.6,142.37 131.67,0 240.61,-51.15 332.01,-145.29zm-2791.78 -224.06c12.57,101.14 49.94,193.29 125.98,265.76 83.02,79.11 183.9,112.76 297.96,112.76 165.23,0 290.35,-62.69 364.57,-213.08l11 -22.3 456.13 0 -17.27 52.5c-54.14,164.56 -152.92,297.76 -292.48,400.31 -153.18,112.56 -333.84,156.02 -521.95,156.02 -241.73,0 -456.17,-75.22 -624.91,-250.71 -174.51,-181.48 -240.43,-413.1 -240.43,-660.48 0,-248.39 67.37,-479.37 243.76,-659.24 170.94,-174.31 386.78,-248.89 629.22,-248.89 238.65,0 454.9,69.59 625.8,239.35 170.64,169.5 241.07,384.58 241.07,622.93 0,57.28 -3.68,114.8 -12.73,171.39l-5.39 33.68 -1280.33 0zm1989.29 498.08l0 226.38 -428.48 0 0 -2342.04 428.48 0 0 792.73c49.95,-57.74 109.06,-106.54 176.42,-146.69 113.23,-67.48 239.34,-95.81 370.48,-95.81 233.79,0 433.99,82.12 594.62,252.52 169.8,180.14 237.1,406.17 237.1,651.03 0,247.16 -69,473.85 -238.37,656.87 -159.6,172.45 -358.41,258.9 -593.35,258.9 -131.52,0 -257.4,-29.42 -369.61,-99.27 -68.28,-42.5 -127.36,-94.21 -177.29,-154.62z"/>
  <path class="fil0" d="M9993.46 1929.45c103.55,-106.66 141.54,-242.98 141.54,-389.39 0,-142.94 -35.77,-278.56 -139.45,-381.19 -92.49,-91.56 -202.31,-138.21 -332.57,-138.21 -130.85,0 -240.36,48.14 -332.27,140.98 -103.33,104.37 -139.74,240.36 -139.74,384.53 0,144.78 36.73,280.97 139.88,386.2 91.23,93.08 199.96,142.37 330.6,142.37 131.67,0 240.61,-51.15 332.01,-145.29zm1947.61 13.34c106.46,-106.48 141.12,-249.71 141.12,-396.62 0,-144.82 -32.6,-288.99 -136.83,-395.38 -91.07,-92.95 -200.44,-139.3 -330.6,-139.3 -128.82,0 -236.82,45.37 -325.58,138.85 -101.92,107.34 -132.68,253.5 -132.68,397.36 0,143 29.72,289.86 129.91,397.67 86.84,93.45 193.26,138.54 320.71,138.54 131.28,0 241.28,-48.46 333.95,-141.12zm-4324.62 -1380.65c-82.29,0 -163.44,17.68 -228.49,70.53 -62.05,50.41 -83.04,121.67 -83.04,199.74 0,83.49 29.18,150.17 98.75,197.77 80.21,54.88 172.87,89.14 267.31,110.12 111.66,24.82 222.55,53.11 332.5,84.67 117.59,33.76 217.76,96.65 299.85,187.37 96.72,106.9 126.49,250.26 126.49,390.6 0,180.25 -81.43,329.11 -211.32,451.01 -154.01,144.53 -351.57,197.3 -559.25,197.3 -200.8,0 -401.68,-41.36 -565.06,-163.9 -152.98,-114.74 -223.86,-272.8 -223.86,-463.01l0 -40 449.6 0 3.18 36.54c6.66,76.64 33.04,144.86 90.84,196.88 64.39,57.95 158.72,72.26 242.24,72.26 91.13,0 183.38,-19.14 253.02,-81.5 56.3,-50.42 89.08,-111.03 89.08,-187.24 0,-59.84 -11.49,-122.99 -52.52,-169.02 -39.61,-44.43 -89.65,-74.6 -145.49,-94.36 -70.01,-24.77 -141.89,-44.71 -214.22,-61.4 -81.58,-18.83 -162.49,-40.56 -242.6,-64.9 -79.63,-24.19 -156.73,-56.46 -228.65,-98.5 -75.9,-44.37 -133.8,-108.22 -176.7,-184.59 -50.16,-89.33 -67.78,-191.72 -67.78,-293.18 0,-191.34 67.73,-354.1 214.36,-478.34 154.51,-130.92 345.99,-179.13 545.52,-179.13 189.12,0 381.86,37.5 534.84,155 146.43,112.46 213.99,271.77 227.97,453.55l3.31 43.07 -464.55 0 -3.6 -36.02c-7.18,-71.77 -37.29,-130.81 -90.89,-179.06 -60.97,-54.87 -140.73,-72.26 -220.84,-72.26zm1574.52 1641.33l0 1027.26 -428.48 0 0 -2565.18 428.48 0 0 214.99c49.95,-57.74 109.06,-106.54 176.42,-146.69 113.23,-67.48 239.34,-95.81 370.48,-95.81 233.79,0 433.99,82.12 594.62,252.52 169.8,180.14 237.1,406.17 237.1,651.03 0,247.16 -69,473.85 -238.37,656.87 -159.6,172.45 -358.41,258.9 -593.35,258.9 -131.52,0 -257.4,-29.42 -369.61,-99.27 -68.28,-42.5 -127.36,-94.21 -177.29,-154.62zm2416.15 253.89c-244.99,0 -461.58,-77.08 -635.15,-251.77 -178.3,-179.43 -250.06,-407.58 -250.06,-657.89 0,-252.2 75.07,-479.81 258.14,-658.34 177.1,-172.69 394.31,-251.32 640.82,-251.32 246.51,0 463.72,78.63 640.82,251.32 182.72,178.19 258.15,404.98 258.15,656.81 0,254.85 -79.09,481.02 -264.52,658.59 -180.48,172.83 -399.69,252.6 -648.2,252.6zm1606.61 -1597.86c110.84,-143.92 264.87,-221.46 464.37,-221.46l40 0 0 440.7 -128.65 0c-100.24,0 -208.1,19.4 -282.18,92.42 -80.04,78.88 -93.54,226.52 -93.54,332.22l0 926.47 -428.48 0 0 -1764.3 428.48 0 0 193.95zm1231.9 170.33l0 892.33c0,34.32 4.74,81.77 31.58,106.76 28.53,26.56 87.46,30.53 124.05,30.53l253.98 0 0 370.4 -315.11 0c-337.01,0 -526.04,-164.92 -526.04,-507.69l0 -892.33 -198.69 0 0 -364.28 198.69 0 0 -418.79 431.54 0 0 418.79 409.61 0 0 364.28 -409.61 0z"/>
  <path class="fil0" d="M12991.39 3728.39c110.84,-143.92 264.87,-221.46 464.37,-221.46l40 0 0 440.7 -128.65 0c-100.24,0 -208.1,19.4 -282.18,92.42 -80.04,78.88 -93.54,226.52 -93.54,332.22l0 926.47 -428.48 0 0 -1764.3 428.48 0 0 193.95z"/>
  <path class="fil2" d="M779.3 2098.9l472.46 325.45c0,0 598.25,-1131.44 1830.58,-340.16 0,0 530.83,332.1 756.89,384.6 623.87,-277.94 1057.31,-595.17 1040.23,-602.08 -452.68,146.26 -1008.48,-231.82 -1008.48,-231.82 -557.63,-421.3 -1053.13,-534.18 -1053.13,-534.18 -1344.14,-249.44 -2038.55,998.19 -2038.55,998.19z"/>
 </g>
</svg>
