<svg version="1.2" xmlns="http://www.w3.org/2000/svg" viewBox="0 0 43 14" width="43" height="14">
	<title>logo-sport-zagreb</title>
	<style>
		.s0 { fill: #12457b } 
		.s1 { fill: #313770 } 
		.s2 { fill: #54af3c } 
		.s3 { fill: #fefefe } 
	</style>
	<g id="Layer_x0020_1">
		<path fill-rule="evenodd" class="s0" d="m4.2 11.9c-0.1 0.1 0.1 0.1 0.2 0.1 0.3 0 1.7 0 1.8 0q0-0.1 0-0.1c0.1-0.1 0.2-0.2 0.3-0.3l0.4-0.4q0.1-0.1 0.1-0.2l0.3-0.3q0 0 0 0 0-0.1 0-0.1 0 0 0 0 0 0 0 0l0.2-0.2q0 0 0 0c0 0 0 0 0 0l0.1-0.1q0 0 0 0 0 0 0 0h0.1q0.1-0.2 0.2-0.4c0.1 0 0 0.1 0 0h0.1q0 0 0-0.1 0 0 0 0 0 0 0 0l0.3-0.3c0.1 0 0 0 0.1 0v-0.1q0.1-0.1 0.3-0.3l0.2-0.3q0 0 0.1 0l0.5-0.6q0 0 0 0l0.2-0.2c0.1-0.1 0.2-0.2 0.3-0.3l0.2-0.2q0 0 0-0.1l0.2-0.2c0.1 0 0.1 0 0.1 0l0.3 0.2q0 0 0 0l0.4 0.2c0 0 0 0 0 0l0.3 0.2c0 0 0 0 0.1 0q0 0 0 0l0.1 0.1c0 0 0 0 0 0l0.5 0.2q0 0 0.1 0.1c0 0 0 0 0 0q0 0 0 0c0 0.1 0 0 0 0l-0.2 0.2q-0.1 0.1-0.1 0.1l-0.1 0.1q-0.1 0.1-0.2 0.1l-0.1 0.1q0 0 0 0l-0.2 0.3q0 0 0 0c0 0 0 0-0.1 0l-0.4 0.4q0 0 0 0c-0.1 0.1-0.1 0.1-0.1 0.1 0 0 0 0-0.1 0 0 0.1 0 0.1 0 0.1l-0.4 0.4c-0.1 0.1-0.1 0-0.2 0.1l-0.1 0.1q0 0 0 0 0 0 0 0 0 0 0 0 0 0 0 0.1l-0.3 0.3q-0.1 0-0.1 0-0.1 0.1-0.1 0.1l2 0.1c0-0.1 0.1-0.2 0.2-0.2v-0.1q0 0 0 0l0.1-0.1q0 0 0 0l0.2-0.2q0 0 0.1 0l0.1-0.1q0 0 0 0l0.5-0.5q0 0 0 0 0 0 0 0 0 0 0 0 0 0 0 0l0.1-0.1q0.1 0 0.1-0.1l0.5-0.4q0 0 0 0l0.1-0.1q0 0 0 0l0.1-0.1q0-0.1 0.1-0.1l0.1-0.1q0 0 0-0.1h0.1c0.1-0.2 0.1-0.1 0.3-0.3v-0.1q0 0 0 0 0 0 0-0.1c0 0 0 0 0-0.1 0.1-0.2 0.1 0 0-0.3 0 0 0 0 0-0.1v-0.1c-0.1-0.1-0.1 0-0.2-0.2-0.1 0 0 0-0.1 0 0 0 0 0 0-0.1-0.1 0 0 0-0.1 0q-0.1 0-0.2-0.1 0 0 0 0c-0.1 0 0 0-0.1 0 0-0.1 0-0.1-0.1-0.1 0 0-0.1-0.1-0.1-0.1q0 0-0.1 0l-0.4-0.3c-0.1 0-0.2-0.1-0.3-0.1l-0.1-0.1c0 0 0 0 0 0l-0.3-0.1c0 0-0.1-0.1-0.1-0.1l-0.2-0.1q0 0-0.1-0.1l-0.2-0.1c0 0-0.2-0.1-0.2-0.1-0.1-0.1 0 0-0.1-0.1h-0.1c0 0 0 0 0 0-0.1-0.1-0.3-0.2-0.4-0.2q0-0.1-0.1-0.1l-0.2-0.1c-0.1 0-0.1 0-0.1-0.1q0 0 0 0c-0.1 0-0.1 0-0.2 0q0 0 0 0l-0.1 0.2q0 0 0 0 0 0 0 0l-0.1 0.1c-0.1 0.1-0.1 0.1-0.2 0.2l-0.1 0.1q0 0.1-0.1 0.1l-0.6 0.7q0 0.1-0.1 0.2l-0.1 0.1q0 0 0 0c0 0-0.1 0-0.1 0l-0.2 0.3q0 0 0 0.1l-0.2 0.2q-0.1 0-0.1 0l-0.1 0.2q0 0 0 0 0 0 0 0 0 0 0 0 0 0 0 0l-0.2 0.2q0 0-0.1 0l-0.1 0.2q0 0 0 0 0 0 0 0 0 0 0 0.1l-0.1 0.1q-0.1 0.1-0.2 0.1 0 0.1-0.1 0.1v0.1q0 0 0 0 0 0 0 0h-0.1q0 0.1-0.1 0.1c0 0.1 0 0 0 0.1l-0.1 0.1q0 0-0.1 0.1c0 0 0 0 0 0l-0.3 0.4q-0.1 0.1-0.2 0.1v0.1q0 0 0 0l-0.1 0.1c-0.1 0.1-0.2 0.2-0.3 0.3q0 0.1-0.1 0.1 0 0 0 0l-0.1 0.2q0 0 0 0l-0.3 0.3q0 0 0 0l-0.3 0.3q0 0 0 0c0 0.1 0 0.1 0 0.1-0.1 0.1-0.4 0.4-0.4 0.4q-0.1 0.1-0.1 0.1-0.1 0.1-0.1 0.1 0 0.1-0.1 0.1 0 0 0 0l-0.1 0.1q0 0 0 0c-0.1 0.1 0 0.2-0.1 0.1 0 0 0 0 0 0z"/>
		<path fill-rule="evenodd" class="s1" d="m26.2 12.9c0 0 0 0 0.1 0v0.1q0.1 0 0.1 0 0.1 0 0.1 0c0 0.1 0 0.1 0.1 0.1h0.1c0.1 0.1 0.3 0.1 0.4 0.1q0 0 0.1 0 0.1 0.1 0.1 0.1c0.1 0 0.5 0 0.5 0 0.1-0.1 0.2-0.1 0.3-0.1 0 0 0 0 0 0q0.1 0 0.1 0c0.1 0 0.2-0.1 0.2-0.1q0 0 0 0 0.1 0 0.2-0.1c0 0 0.2-0.1 0.3-0.2l0.1-0.1q0.1-0.1 0.1-0.2c0.1-0.1 0.1 0 0.1-0.1 0 0 0 0 0-0.1 0-0.1 0 0 0.1-0.1 0-0.1 0 0 0-0.1 0-0.1 0-0.1 0-0.2q0 0 0-0.1 0.1-0.1 0.1-0.2v-3q0 0-0.1 0c0-0.1-0.6 0-0.6 0-0.1 0-0.1-0.1-0.1 0v0.4q-0.1 0-0.1 0 0-0.1 0-0.1l-0.2-0.1q0-0.1 0-0.1c-0.1 0-0.2-0.1-0.3-0.1 0 0 0 0 0 0q-0.1 0-0.1 0c-0.1-0.1-0.1-0.1-0.1-0.1 0 0-0.2 0-0.3 0-0.1 0-0.2 0-0.4 0 0 0 0 0.1-0.1 0.1-0.1 0 0 0-0.1 0 0 0 0 0 0 0-0.1 0-0.1 0-0.1 0q0 0 0 0.1h-0.2c-0.1 0.1 0 0.1-0.1 0.1-0.1 0.1-0.2 0.1-0.2 0.2-0.1 0.1-0.1 0.1-0.2 0.2l-0.1 0.2q0 0 0 0v0.2q-0.1 0-0.1 0.1c0 0.1 0 0.6 0 0.7 0 0.1 0 0.1 0 0.2 0 0.1 0 0.1 0.1 0.1 0 0.1 0 0.1 0 0.1 0 0 0 0 0 0.1l0.1 0.2c0.1 0.1 0.1 0.1 0.2 0.2v0.1q0 0 0.1 0l0.2 0.2c0.1 0 0 0 0.1 0l0.2 0.1c0 0 0 0 0 0 0.1 0.1 0 0.1 0.1 0.1 0.1 0 0.1 0 0.2 0q0 0 0.1 0c0.1 0 0.4 0 0.5 0 0 0 0 0 0.1 0 0 0 0-0.1 0-0.1 0.1 0 0.1 0 0.1 0l0.4-0.2q0 0 0-0.1c0.1 0 0.1 0 0.1 0 0 0 0 0 0 0.1 0 0 0 0.1 0 0.1q0 0.1 0 0.2c0 0.1 0 0.1-0.1 0.1q0 0 0 0.1c0 0 0 0 0 0 0 0.1 0 0.1 0 0.1l-0.2 0.2q0 0-0.1 0.1h-0.1c0 0.1 0 0-0.1 0.1 0 0 0 0-0.1 0q0 0 0 0c-0.1 0-0.1 0-0.2 0-0.3 0-0.2 0-0.4 0-0.2 0 0 0-0.1 0-0.1-0.1-0.1 0-0.1-0.1-0.1 0 0 0-0.1 0q0 0 0 0c-0.1 0 0 0 0 0q-0.1 0-0.1 0-0.1-0.1-0.2-0.1l-0.1-0.1q0 0 0 0 0 0 0 0-0.1 0-0.1 0c0-0.1 0-0.1-0.1-0.1 0 0 0 0.1 0 0.1 0 0.1 0 0 0 0.1q0 0 0 0.1c0 0 0 0-0.1 0 0 0.1 0 0.1 0 0.1 0 0.1 0 0.1 0 0.2q-0.1 0.1 0 0.2z"/>
		<path fill-rule="evenodd" class="s0" d="m23.4 3.6c0-0.1 0-0.3 0-0.4 0 0 0 0 0 0-0.1-0.1-0.2-0.1-0.3-0.1-0.1 0-0.5 0-0.6 0.1v4.6c0 0 0.1 0 0.2 0h0.5c0.1 0 0.1 0 0.2 0 0-0.3 0-1.5 0-1.6 0 0 0 0 0 0 0 0 0 0 0.1 0.1q0.1 0.1 0.2 0.2c0 0 0 0 0.1 0 0 0 0 0 0 0 0.1 0 0.1 0 0.2 0.1q0 0 0 0c0.2 0 0.4 0 0.6 0 0.2 0 0.1 0 0.2 0q0 0 0.1 0c0-0.1 0-0.1 0-0.1 0.1 0 0.1 0 0.1 0 0.1 0 0.1 0 0.1 0 0-0.1 0.1-0.1 0.2-0.2q0 0 0 0 0.1 0 0.2-0.1l0.3-0.4v-0.1c0-0.1 0.1-0.1 0.1-0.1v-0.2c0 0 0 0 0.1 0 0-0.1 0-0.1 0-0.2 0-0.1 0-0.6 0-0.7v-0.2c-0.1 0-0.1 0-0.1 0q0-0.1 0-0.1c0-0.1 0-0.1 0-0.1 0-0.1 0 0-0.1-0.1q0 0 0 0 0 0 0 0c0-0.1 0 0-0.1-0.2 0 0 0 0 0 0l-0.2-0.2q0-0.1-0.1-0.2l-0.2-0.1c-0.1 0-0.2-0.1-0.2-0.1 0 0 0 0-0.1 0 0 0 0 0 0 0-0.1-0.1-0.2-0.1-0.2-0.1-0.1 0-0.4 0-0.5 0-0.1 0-0.1 0-0.2 0 0 0.1 0 0.1-0.1 0.1 0 0 0 0-0.1 0q-0.1 0.1-0.2 0.1v0.1c-0.2 0.1-0.2 0.1-0.2 0.2z"/>
		<path fill-rule="evenodd" class="s0" d="m28.4 11.3c0.1 0 0.1 0 0.1 0 0.1 0.1 0.1 0.1 0.1 0.2q0 0.1 0 0.3c-0.1 0 0-0.1-0.1 0.1 0 0.1 0 0 0 0.1q0 0 0 0l-0.1 0.1c0 0.1 0 0.1 0 0.1l-0.1 0.1q0 0 0 0-0.1 0.1-0.2 0.2c0 0 0 0 0 0h-0.1c0 0 0 0-0.1 0-0.1 0-0.1 0.1-0.2 0.1q-0.1 0-0.2 0h-0.3c0 0 0 0 0 0-0.1-0.1-0.1 0-0.1-0.1-0.1 0-0.1 0-0.1 0q-0.1 0-0.1 0c0 0 0 0-0.1 0 0 0 0-0.1-0.1-0.1 0 0 0 0 0 0-0.1 0 0 0-0.1 0l-0.1-0.1q0 0 0 0 0 0 0 0 0 0 0 0 0 0 0 0l-0.1-0.1c0 0 0 0 0 0q0 0.1 0 0.1-0.1 0-0.1 0.1 0 0 0 0c0 0.1 0 0.1 0 0.1q0 0.1 0 0.1c0 0 0 0 0 0.1q-0.1 0-0.1 0c0 0.1 0 0.1 0 0.1 0 0 0 0 0 0q0 0 0.1 0.1 0 0 0.1 0c0 0 0 0 0 0l0.2 0.1q0 0 0.1 0c0 0 0 0.1 0 0.1q0.1 0 0.1 0c0 0 0 0 0.1 0 0.1 0 0.1 0 0.1 0.1 0.2 0 0 0 0.4 0h0.5c0.1 0 0.1 0 0.2 0q0 0 0.1-0.1c0 0 0 0 0 0 0.2 0 0.1 0 0.1 0q0.1 0 0.1 0l0.4-0.3q0.1-0.1 0.2-0.2 0 0 0 0 0-0.1 0.1-0.2v-0.1c0 0 0.1 0 0.1 0q0-0.1 0-0.1c0 0 0 0 0 0q0-0.1 0-0.1c0-0.1 0 0 0-0.1q0.1-0.1 0.1-0.2c0-0.1 0-0.4 0-0.5v-2.6c-0.2 0-0.5-0.1-0.7-0.1 0 0.1 0 0.4 0 0.4q0 0 0 0 0 0.1 0 0.1-0.1 0-0.1 0-0.1-0.1-0.1-0.1l-0.3-0.3h-0.1c0 0 0 0 0 0q0-0.1-0.1-0.1c0 0 0 0 0 0q-0.1 0-0.2 0c-0.1 0 0 0-0.4 0q0 0 0 0c-0.1 0 0 0-0.1 0q0 0-0.1 0c-0.1 0-0.1 0-0.1 0q0 0.1-0.1 0.1h-0.1q-0.1 0.1-0.2 0.1l-0.1 0.1q-0.1 0.1-0.2 0.2l-0.2 0.3c0 0.1-0.1 0.2-0.1 0.3 0 0.1 0 0 0 0.1-0.1 0.1 0 0.5 0 0.7 0 0.1 0 0.1 0 0.1q0 0.1 0 0.1c0.1 0.1 0 0.1 0.1 0.1 0 0.1 0 0 0 0.1q0 0.1 0.1 0.1l0.1 0.3q0.1 0.1 0.2 0.2l0.3 0.1c0 0 0 0 0 0q0 0 0.1 0 0 0 0 0.1 0 0 0.1 0c0 0 0 0 0.1 0q0.1 0 0.2 0c0 0.1 0.2 0.1 0.3 0q0 0.1 0.1 0c0 0 0 0 0 0q0.1 0 0.1 0c0.1 0 0 0 0.1 0 0 0 0 0 0 0 0.1-0.1 0-0.1 0.1-0.1 0 0 0 0 0.1 0 0 0 0.1-0.1 0.2-0.1v-0.1q0 0 0 0c0 0 0.1 0 0.1 0v-0.1q0 0 0 0 0 0 0 0z"/>
		<path fill-rule="evenodd" class="s2" d="m12.1 5.5q0-0.1-0.1-0.1 0 0 0.1 0l0.1-0.1q0 0 0.1-0.1l0.4-0.2c0 0 0 0 0 0l0.2-0.1q0 0 0 0l0.3-0.1q0 0 0 0l0.2-0.2q0.1 0 0.1 0l0.4-0.2q0.1-0.1 0.2-0.2c0 0 0 0 0 0 0 0 0 0-0.1 0q-0.1 0-0.2 0.1c-0.1 0-0.3 0-0.5 0l-0.3-0.1q0 0-0.1-0.1c0 0 0 0 0 0-0.1 0-0.1 0-0.1 0l-0.2-0.1c-0.1 0 0 0-0.1 0-0.1-0.1-0.1-0.1-0.1-0.1-0.1-0.1-0.2-0.1-0.3-0.1q0 0 0-0.1 0 0 0 0l-0.7-0.4q0 0 0 0c0 0 0 0 0 0-0.1 0 0 0-0.1 0l-0.1-0.1c0 0 0 0-0.1-0.1q0 0-0.1 0l-0.6-0.3c0 0-0.3-0.1-0.3-0.1-0.1-0.1-0.1 0-0.2-0.1q-0.1 0-0.2 0c0 0 0 0-0.1 0q-0.1 0-0.2 0-0.3 0-0.6 0 0 0-0.1 0-0.1 0-0.2 0 0 0.1-0.1 0.1c-0.1 0 0 0-0.1 0q-0.1 0-0.1 0 0 0-0.1 0c0 0.1 0 0.1-0.1 0.1 0 0 0 0-0.1 0q0 0 0 0c-0.1 0 0 0-0.1 0l-0.1 0.1c0 0 0 0 0 0q0 0-0.1 0l-0.1 0.1q-0.1 0-0.1 0.1l-0.2 0.1c-0.1 0.1-0.3 0.2-0.4 0.3-0.1 0.1-0.3 0.3-0.4 0.4l-0.2 0.1q0 0.1-0.1 0.2l-0.1 0.1q0 0 0 0l-0.2 0.3q0 0 0 0c-0.1 0.1 0 0.1 0 0.2l0.3 0.2c0 0 0 0 0 0l0.1 0.1q0 0 0 0c0.1 0.1 0.3 0.1 0.4 0.2 0 0 0 0 0 0 0 0.1 0 0.1 0.1 0.1q0-0.1 0-0.1 0.1-0.1 0.1-0.1 0 0 0 0c0 0 0 0 0 0l0.5-0.6c0.2-0.1 0.2-0.1 0.3-0.2h0.1q0-0.1 0.1-0.1c0 0 0 0 0.1 0 0-0.1 0-0.1 0.1-0.1l0.1-0.1q0.1 0 0.2 0 0 0 0.1 0c0.2 0 0.4-0.1 0.5 0q0.1 0 0.2 0 0 0 0.1 0c0 0 0 0 0 0 0.1 0 0.1 0 0.2 0.1 0 0 0 0 0 0h0.2c0 0 0 0 0 0q0 0.1 0.1 0.1c0 0 0 0 0 0h0.1c0.1 0.1 0.1 0.1 0.1 0.1l0.5 0.2c0 0 0 0 0 0.1l0.3 0.1q0.2 0.1 0.3 0.2c0.1 0 0.1 0 0.1 0q0 0 0.1 0c0 0 0 0 0 0.1h0.1q0.1 0.1 0.2 0.1 0 0 0.1 0.1h0.2q0 0.1 0 0.1 0 0 0.2 0 0 0 0 0.1 0.1 0 0.1 0z"/>
		<path fill-rule="evenodd" class="s0" d="m37.1 11.9c0-0.1 0-0.3 0-0.3q0 0 0 0v-0.1c0.1 0.1 0.1 0.1 0.1 0.1q0 0 0 0l0.2 0.1q0.1 0.1 0.2 0.2 0 0 0 0c0.1 0 0.1 0 0.1 0 0.1 0 0.1 0 0.1 0.1 0.1 0 0.6 0 0.6 0 0-0.1 0-0.1 0.1-0.1 0 0 0 0 0.1 0q0 0 0.1 0c0-0.1 0.1-0.1 0.1-0.1q0 0 0.1 0c0-0.1 0 0 0.1-0.1l0.1-0.1q0.1-0.1 0.1-0.1 0.1-0.1 0.2-0.2 0 0 0 0l0.1-0.2c0 0 0 0 0 0 0-0.1 0 0 0-0.1l0.1-0.2c0-0.1 0-0.1 0-0.2 0.1-0.1 0.1-0.5 0-0.6 0-0.1 0-0.1 0-0.1 0-0.1 0-0.1 0-0.1 0-0.1 0-0.1 0-0.1q0-0.1 0-0.1c-0.1-0.1-0.1 0-0.1-0.1 0-0.1 0 0 0-0.1-0.1-0.1-0.1-0.1-0.1-0.2q-0.1-0.1-0.1-0.1l-0.3-0.2q0-0.1-0.1-0.1c-0.1 0-0.1-0.1-0.2-0.1 0 0 0 0-0.1 0q0-0.1 0-0.1c-0.1 0 0 0-0.1 0-0.1 0-0.1 0-0.2 0-0.1 0-0.3 0-0.4 0 0 0 0 0 0 0-0.1 0-0.1 0-0.2 0v0.1c-0.1 0-0.1 0-0.1 0q-0.1 0-0.2 0.1c0 0 0 0 0 0-0.2 0.1-0.2 0.2-0.3 0.2-0.1-0.1-0.1-0.7-0.1-0.9 0-0.1 0.1-0.7 0-0.8h-0.7c0 0.1 0 1 0 1.2q0 0.5 0 1.1c0 0.2 0 2.2 0 2.3 0.1 0 0.6 0 0.7 0 0 0 0-0.3 0-0.3 0.1 0 0.1 0 0.1 0.1 0 0.1 0 0.2 0 0.2z"/>
		<path fill-rule="evenodd" class="s1" d="m28 3.1q-0.1 0-0.1 0-0.1 0-0.1 0-0.1 0-0.1 0.1c-0.1 0 0 0-0.1 0-0.1 0 0 0-0.1 0l-0.1 0.1c-0.1 0-0.3 0.1-0.3 0.1 0 0.1 0 0.1-0.1 0.1q0 0 0 0l-0.1 0.1c0 0-0.1 0.1-0.1 0.2l-0.2 0.2c0 0 0 0.1-0.1 0.2q0 0 0 0.1c0 0 0 0.1 0 0.2-0.1 0-0.1 0.3-0.1 0.4q0 0.1 0 0.2 0 0 0.1 0.1 0 0 0 0.1 0 0.1 0.1 0.2c0 0.1 0 0.1 0 0.1q0 0.1 0.1 0.2c0 0 0 0 0 0l0.1 0.2q0.1 0 0.1 0v0.1q0.1 0.1 0.2 0.1 0 0.1 0.1 0.1c0.1 0.1 0 0.1 0.1 0.1q0.1 0 0.1 0.1 0 0 0 0h0.2c0.1 0 0 0 0 0q0.1 0.1 0.1 0.1c0.1 0 0.1 0 0.1 0 0.1 0 0.2 0 0.2 0 0.2 0 0.3 0 0.4 0 0.2 0 0.2 0 0.3 0q0.1 0 0.1-0.1c0.1 0 0.1 0 0.1 0 0.1 0 0 0 0.1 0 0.1-0.1-0.1 0 0-0.1q0 0 0.1 0c0 0 0 0 0 0q0.1-0.1 0.2-0.1l0.1-0.1c0 0 0 0 0.1-0.1l0.2-0.2c0-0.1 0.1-0.2 0.1-0.2 0-0.1 0-0.1 0.1-0.1q0 0 0-0.1l0.1-0.1c0-0.1 0-0.1 0-0.1 0-0.1 0-0.8 0-0.9 0 0 0 0 0-0.1-0.1-0.1-0.1 0-0.1-0.1q0 0 0-0.1c0 0 0 0 0 0q0 0 0 0l-0.1-0.1c0 0 0 0 0 0q0-0.1-0.1-0.1 0-0.1 0-0.1 0 0 0 0l-0.1-0.1q0 0 0-0.1-0.1-0.1-0.2-0.1-0.1-0.1-0.2-0.1c0-0.1 0-0.1-0.1-0.1q0 0-0.1 0 0 0 0 0c0-0.1 0-0.1 0-0.1-0.1 0-0.1 0-0.1 0-0.1 0-0.1 0-0.1 0-0.1-0.1-0.1 0-0.2-0.1-0.1 0-0.5 0-0.6 0z"/>
		<path fill-rule="evenodd" class="s0" d="m26.6 4.4c-0.1 0-0.1 0-0.1 0 0 0.2 0 0.2 0 0.4 0 0.1 0 0.2 0 0.2 0 0.1 0 0.1 0 0.2 0 0.1 0.1 0.1 0.1 0.1q0 0.1 0 0.1l0.1 0.4 0.2 0.2q0.1 0 0.1 0v0.1q0.1 0.1 0.1 0.1 0 0 0.1 0c0.1 0.1 0 0.1 0.1 0.1q0 0 0 0h0.1c0 0.1 0 0.1 0 0.1 0.1 0 0 0 0.1 0 0 0 0 0 0 0 0 0 0 0 0.1 0 0 0.1 0 0.1 0.1 0.1 0 0 0 0 0 0q0.1 0 0.2 0h0.5c0.1 0 0.1 0 0.1 0q0.1 0 0.1 0 0.1 0 0.1 0 0.1 0 0.1-0.1h0.1q0.1 0 0.1 0c0.1-0.1 0-0.1 0.1-0.1 0 0 0.2-0.1 0.2-0.1q0 0 0.1-0.1l0.1-0.1q0 0 0 0l0.1-0.2c0.1 0 0 0.1 0.1 0q0 0 0 0v-0.1c0.1-0.1 0.1-0.1 0.1-0.1 0-0.1 0 0 0-0.1 0-0.1 0.1 0 0.1-0.1 0-0.1 0 0 0-0.1 0 0 0-0.1 0-0.1 0-0.2 0.1-0.1 0-0.4q0-0.1 0-0.2c0-0.1 0-0.1 0-0.1q0-0.1 0-0.1c0-0.1 0 0 0-0.1q0 0 0-0.1c-0.1 0-0.1 0-0.1 0v-0.1c0-0.1 0-0.1-0.1-0.1l-0.1-0.2c0-0.1 0-0.1-0.1-0.1l-0.1-0.2c-0.1 0-0.2-0.1-0.2-0.1-0.1 0 0 0-0.1 0 0 0 0 0-0.1-0.1 0 0 0 0 0 0-0.1 0 0 0-0.1 0 0 0 0 0 0 0-0.1-0.1-0.1-0.1-0.2-0.1-0.1 0 0 0-0.1 0q-0.1 0-0.2 0 0 0 0 0c0-0.1 0 0-0.2 0q-0.1-0.1-0.1 0c-0.1 0-0.1 0-0.2 0-0.1 0-0.1 0-0.1 0-0.1 0-0.2 0-0.2 0 0 0.1 0 0.1-0.1 0.1 0 0 0 0 0 0-0.1 0 0 0-0.1 0v0.1q-0.1 0-0.2 0l-0.2 0.3q-0.2 0.1-0.3 0.3 0 0 0 0c0 0.1 0 0 0 0.1-0.1 0.1-0.1 0-0.1 0q0 0.1 0 0.1c0 0.1 0 0 0 0.2z"/>
		<path fill-rule="evenodd" class="s1" d="m18.7 7.6v0.5q-0.1 0.1 0 0.2h2q0 0 0 0.1l-0.1 0.1c-0.1 0.1-0.2 0.3-0.3 0.4l-0.4 0.5q0 0.1 0 0.1l-0.3 0.5q0 0-0.1 0l-0.2 0.3q0 0.1 0 0.1l-0.2 0.2q0 0-0.1 0.1 0 0.1-0.1 0.2 0 0-0.1 0.1-0.1 0.1-0.1 0.1v0.1c0 0-0.1 0.1-0.1 0.1v0.6c0 0.1 0.1 0 0.1 0q1.2 0 2.4 0c0 0 0.8 0.1 0.8 0 0.1 0 0.1-0.2 0.1-0.2v-0.4c0-0.1 0-0.1-0.5-0.1h-1.8c0-0.1 0-0.1 0.1-0.1v-0.1q0 0 0 0l0.1-0.1c0-0.1 0-0.1 0.1-0.1q0-0.1 0.1-0.2c0 0 0 0 0 0q0 0 0 0 0 0 0 0v-0.1q0 0 0 0 0 0 0 0 0 0 0.1 0 0 0 0 0c0.1-0.1 0.1-0.2 0.2-0.3l0.1-0.1c0-0.1 0 0 0-0.1q0.1 0 0.1-0.1l0.2-0.2q0-0.1 0-0.1l0.3-0.4q0 0 0.1-0.1 0 0 0-0.1 0 0 0.1 0l0.1-0.2q0 0 0-0.1l0.2-0.1q0-0.1 0-0.2 0 0 0 0l0.1-0.1c0.1-0.1 0.1 0 0.1-0.3 0-0.1 0.1-0.4 0-0.5q-1.2 0-2.5 0h-0.5c-0.2 0-0.1 0-0.1 0.1z"/>
		<path fill-rule="evenodd" class="s1" d="m34.1 12c0.3 0 0.2 0 0.4 0 0.1 0 0.1 0 0.2 0q0.1 0 0.1-0.1c0.1 0 0.1 0 0.1 0 0.1 0 0 0 0.1 0q0 0 0 0c0.1 0 0 0 0.1 0 0.1-0.1 0.1-0.1 0.1-0.1 0.1 0 0 0 0.1 0 0-0.1 0-0.1 0.1-0.1q0 0 0 0c0.1-0.1 0.1-0.1 0.1-0.2q0-0.1-0.1-0.1c0-0.1-0.1-0.3-0.1-0.3 0 0 0-0.1 0-0.1-0.1 0 0 0-0.1 0l-0.2 0.2c0 0 0 0-0.1 0 0 0 0.1 0 0 0q0 0 0 0c-0.1 0-0.1 0.1-0.1 0.1q-0.1 0-0.1 0c-0.1 0-0.1 0-0.2 0h-0.6q0 0 0 0c-0.1 0-0.1 0-0.1-0.1-0.1 0-0.1 0-0.1 0h-0.1c-0.1-0.1 0-0.1-0.1-0.1l-0.1-0.2c-0.1 0 0 0-0.1-0.1 0 0 0 0 0 0 0-0.1 0-0.1 0-0.3q1 0 2.1 0c0.3 0 0.3 0.1 0.3-0.2 0-0.2 0-0.3 0-0.4-0.1-0.1-0.1-0.1-0.1-0.2 0 0 0 0 0-0.1 0 0 0-0.1 0-0.1-0.1-0.1 0-0.1-0.1-0.1 0-0.1 0-0.1 0-0.1-0.1-0.1-0.1-0.2-0.2-0.2q0 0 0-0.1 0 0 0 0l-0.4-0.3c0 0 0 0-0.1-0.1-0.1 0 0 0-0.1 0 0 0-0.1 0-0.1 0-0.1 0-0.1-0.1-0.1-0.1-0.1 0-0.6 0-0.7 0-0.1 0-0.1 0-0.1 0q-0.1 0.1-0.1 0.1c-0.1 0 0 0-0.1 0-0.1 0-0.1 0-0.1 0q0 0-0.1 0c0 0.1 0 0.1 0 0.1q-0.1 0-0.1 0c0 0.1 0 0-0.1 0.1h-0.1c0 0 0 0 0 0.1h-0.1q0 0 0 0.1c-0.1 0-0.1 0-0.1 0.1q-0.1 0-0.1 0.1-0.1 0.1-0.1 0.2c-0.1 0.1 0 0-0.1 0.1 0 0 0 0 0 0v0.1c0 0.1 0 0 0 0.1q-0.1 0-0.1 0.1c0 0.1 0 0 0 0.2 0 0.1 0 0 0 0.3 0 0.1 0 0.2 0 0.2q0 0.1 0 0.2c0 0 0 0 0 0.1 0 0 0 0 0 0.1 0.1 0 0.1 0 0.1 0 0 0.1 0 0.2 0.1 0.2 0 0.1 0 0.1 0 0.2q0.1 0 0.1 0.1l0.2 0.2q0 0 0 0 0.1 0.1 0.2 0.2c0.1 0 0.1 0 0.1 0h0.1q0 0 0 0.1h0.1c0 0 0 0 0.1 0 0 0 0 0 0.1 0.1q0 0 0.1 0c0 0 0 0 0.1 0q0 0 0.1 0c0.1 0.1 0.1 0 0.2 0z"/>
		<path fill-rule="evenodd" class="s1" d="m18.9 2.8c-0.1 0.1-0.1 0.1-0.1 0.1q0 0.1 0 0.2c0 0.1 0 0 0 0.2 0 0.1 0 0.3 0 0.4 0 0 0 0 0 0.1l0.1 0.1c0 0 0 0 0.1 0.1 0 0.1 0 0.1 0.2 0.2l0.1 0.1q0 0 0 0.1c0.1 0 0.1 0 0.1 0 0 0 0 0 0.1 0 0 0.1 0 0.1 0 0.1q0.1 0 0.2 0c0.1 0.1 0.1 0 0.1 0.1 0.1 0 0.1 0 0.1 0q0.1 0 0.1 0c0.1 0 0.1 0 0.1 0.1q0 0 0.1 0c0.1 0 0 0 0.1 0q0 0 0.1 0c0 0 0 0 0.1 0l0.3 0.2q0 0 0 0h0.1c0 0 0 0 0 0v0.1q0.1 0 0.1 0l0.1 0.1c0 0.1 0 0 0 0.1 0 0.1 0 0.2 0 0.3q-0.1 0-0.1 0.1l-0.1 0.1c0 0-0.1 0.1-0.2 0.1 0 0-0.1 0-0.1 0-0.2 0.1-0.2 0.1-0.4 0q-0.1 0.1-0.2 0 0 0-0.1 0c0 0-0.1 0-0.1 0q0 0-0.1 0c-0.1 0-0.1-0.1-0.1-0.1-0.1 0-0.1 0-0.2 0q0 0 0-0.1c-0.1 0-0.1 0-0.1 0 0 0 0 0-0.1 0l-0.1-0.1c0 0-0.1 0-0.2-0.1 0 0 0-0.1-0.1 0 0 0 0 0.1 0 0.2 0 0.1 0 0.1 0 0.2q0 0.2 0 0.4 0.1 0 0.2 0.1c0.1 0.1 0 0 0.1 0.1l0.2 0.1q0 0 0 0 0 0 0.1 0c0 0 0 0 0 0q0.1 0 0.1 0 0.1 0.1 0.1 0.1c0.1 0 0.1 0 0.2 0 0.2 0 0.1 0 0.2 0 0.1 0 0.5 0 0.5 0 0.1 0 0.1 0 0.1 0q0.1 0 0.2 0l0.2-0.1c0 0 0 0 0 0h0.2c0.1-0.1-0.1 0 0-0.1 0 0 0 0 0.1 0q0 0 0 0 0 0 0 0 0 0 0 0 0.1-0.1 0.2-0.1l0.2-0.2c0-0.1 0.1-0.2 0.1-0.2 0-0.1 0-0.1 0.1-0.1 0 0 0 0 0-0.1q0 0 0 0c0-0.1 0 0 0-0.1 0 0 0 0 0-0.1 0.1-0.1 0.1 0 0.1-0.2 0-0.1 0-0.2-0.1-0.3 0 0 0-0.1 0-0.2l-0.1-0.2q-0.1-0.1-0.1-0.1-0.1-0.1-0.2-0.2 0 0-0.1-0.1 0 0 0 0l-0.1-0.1c-0.1 0-0.2 0-0.2 0-0.1-0.1-0.1 0-0.1-0.1-0.1 0 0 0-0.1 0-0.1 0-0.1 0-0.1 0-0.1 0-0.1 0-0.1-0.1q-0.1 0-0.1 0c-0.1 0 0 0-0.1 0-0.1 0-0.1 0-0.1-0.1-0.1 0-0.1 0-0.1 0-0.1 0-0.1 0-0.2 0 0 0 0 0 0 0-0.1-0.1-0.2-0.1-0.3-0.2 0 0 0 0 0 0l-0.1-0.1q-0.1-0.2 0-0.4c0 0 0 0 0 0q0-0.1 0.1-0.1 0.1-0.1 0.1-0.1l0.1-0.1q0.1 0 0.2 0c0 0 0.1 0 0.2 0 0.1 0 0.2 0 0.3 0 0.1 0 0.1 0 0.2 0 0 0 0 0 0 0.1q0.1 0 0.1 0c0.1 0 0 0 0.1 0 0.1 0 0 0 0.1 0 0.1 0.1 0 0.1 0.1 0.1h0.1c0 0 0.1 0.1 0.1 0.1 0 0 0.1 0.1 0.2 0.1 0 0 0-0.2 0-0.3 0-0.1 0-0.3 0-0.4 0.1-0.1 0-0.1-0.1-0.2q0 0 0 0h-0.1c0 0 0 0 0-0.1q0 0 0 0c-0.1 0-0.1 0-0.1 0 0 0 0 0-0.1 0h-0.1c0-0.1 0-0.1 0-0.1q-0.1 0-0.1 0c0 0 0 0 0 0q-0.1 0-0.1 0-0.1-0.1-0.1-0.1c-0.1 0-0.1 0-0.1 0-0.1 0-0.5 0-0.7 0-0.1 0-0.1 0-0.2 0-0.1 0 0 0.1-0.1 0.1-0.1 0-0.2 0-0.3 0.1 0 0 0 0 0 0 0 0 0 0 0 0q0 0-0.1 0l-0.4 0.4-0.1 0.1q0 0 0 0c0 0 0 0 0 0 0 0.1 0 0.1 0 0.1z"/>
		<path fill-rule="evenodd" class="s0" d="m34.9 11.8c0.1 0 0.1 0 0.2 0l0.2-0.2c0.1 0 0 0 0.1 0q0 0 0 0 0 0 0 0c0-0.2 0-0.1 0-0.2 0-0.1 0 0-0.1-0.1q0 0 0-0.1c0 0 0 0 0-0.1-0.1 0-0.2 0.1-0.2 0.1-0.1 0-0.1 0.1-0.2 0.1 0 0 0 0 0 0q-0.1 0-0.1 0c-0.1 0 0 0.1-0.1 0.1-0.2 0-0.2 0-0.5 0-0.3 0-0.2 0-0.3 0q0 0-0.1-0.1c0 0 0 0 0 0q-0.1 0-0.1 0c0 0 0 0 0 0-0.1-0.1-0.1 0-0.1-0.1 0 0 0 0-0.1 0 0 0 0 0-0.1-0.1q0 0 0 0 0 0 0 0 0-0.1 0-0.1c0 0-0.1 0-0.1 0 0-0.1 0 0.1 0-0.1-0.1-0.1-0.1-0.1-0.1-0.1 0-0.2 0-0.1 0-0.2q0 0 0-0.1c0 0 0 0 0.3 0q0.1 0 0.3 0 0.4 0 0.8 0h0.9c0.1 0 0.1 0 0.1 0 0 0 0-0.2 0-0.2 0-0.2 0-0.3 0-0.3 0-0.1 0-0.2 0-0.2 0-0.1-0.1-0.1-0.1-0.1 0-0.2 0-0.1 0-0.2l-0.1-0.2q0 0 0 0c0 0 0 0 0 0l-0.1-0.1q-0.1-0.1-0.2-0.2c0-0.1-0.1-0.2-0.1-0.2q0 0-0.1 0c0 0 0 0 0 0l-0.1-0.1q0 0 0 0 0 0-0.1 0c0 0 0 0-0.1-0.1-0.1 0 0 0-0.2 0 0 0 0 0-0.1 0q0 0 0 0-0.1 0-0.2 0c0 0-0.2 0-0.2 0 0 0 0 0-0.1 0-0.1 0-0.1 0-0.2 0q0 0-0.1 0.1c0 0 0 0 0 0q-0.1 0-0.1 0-0.1 0-0.2 0.1 0 0-0.1 0l-0.1 0.1c0 0.1 0 0.1-0.1 0.1q0 0 0 0-0.1 0.1-0.2 0.3 0 0 0 0 0 0.1-0.1 0.1c0 0 0 0 0 0v0.1c0 0 0 0 0 0.1 0 0 0 0-0.1 0q0 0.1 0 0.1c0 0.1 0 0 0 0.1 0 0 0 0.1 0 0.1 0 0.1-0.1 0-0.1 0.3 0 0.1 0 0.3 0.1 0.3v0.3c0 0 0 0 0 0q0 0.1 0 0.1c0.1 0.1 0.1 0 0.1 0.1 0 0 0 0 0 0 0 0.1 0 0.1 0 0.1 0 0 0 0 0 0.1l0.3 0.3q0.1 0.1 0.1 0.1l0.1 0.1q0.1 0 0.1 0c0.1 0.1 0.1 0.1 0.2 0.1 0 0 0 0 0 0 0.1 0 0.1 0.1 0.1 0.1 0.1 0 0.1 0 0.1 0 0.1 0 0.1 0 0.2 0 0.1 0.1 0.5 0.1 0.7 0.1q0-0.1 0.2-0.1c0 0 0.1 0 0.1 0 0.1 0 0.1 0 0.1-0.1z"/>
		<path fill-rule="evenodd" class="s0" d="m24.4 11.6h0.1c0 0 0-0.1 0 0 0 0 0 0.3 0 0.3v-0.3q0 0 0 0c0.1 0 0 0 0.1 0 0 0 0 0.2 0 0.3 0 0 0 0 0 0 0.1 0 0 0 0.2 0h0.5c0-0.1 0-1.2 0-1.5q0-0.3 0-0.7c0-0.2-0.1-0.3-0.1-0.3 0-0.1 0-0.1 0-0.1 0 0 0 0-0.1-0.1 0-0.1 0 0 0-0.1q0 0 0 0-0.1-0.1-0.1-0.1l-0.4-0.3c0 0 0 0-0.1 0 0 0 0.1 0 0 0q-0.1-0.1-0.1-0.1-0.1 0-0.1 0 0 0-0.1 0c0 0-0.1 0-0.1 0-0.1 0-0.5 0-0.5 0-0.1 0 0 0-0.1 0-0.1 0-0.1 0-0.2 0 0 0-0.1 0-0.1 0.1-0.1 0 0 0-0.1 0h-0.2c0 0 0 0.1 0 0.1 0 0 0 0 0 0-0.1 0-0.1 0-0.1 0 0 0 0 0-0.1 0 0 0.1 0 0.5 0.1 0.6 0 0 0 0 0.1 0l0.1-0.1c0 0 0.1 0 0.1 0 0.1-0.1 0 0 0.1-0.1 0 0 0 0 0 0 0.1 0 0.1 0 0.2 0 0.1 0 0.4 0 0.5 0 0 0 0.1 0 0.2 0 0 0 0 0 0 0 0.1 0 0 0 0.1 0l0.2 0.2 0.2 0.3c0 0 0 0 0 0q0 0.1 0 0.2 0 0-0.1 0c0 0.1 0 0.1-0.1 0.1-0.1 0-0.4 0-0.6 0-0.1 0-0.2 0-0.4 0-0.1 0-0.1 0-0.2 0-0.1 0.1-0.1 0.1-0.1 0.1 0 0-0.1 0-0.1 0-0.1 0-0.1 0.1-0.1 0.1-0.1 0 0 0-0.1 0q0 0-0.1 0.1l-0.1 0.2c-0.1 0 0 0-0.1 0 0 0.1 0 0.1 0 0.1q0 0 0 0.1c0 0.1 0 0-0.1 0.2q0 0.1 0.1 0.3v0.2q0 0 0 0l0.1 0.1q0.1 0.2 0.2 0.3h0.1c0.1 0.1 0.1 0.1 0.2 0.1 0 0 0 0 0 0q0.1 0 0.1 0c0 0 0 0 0.1 0.1 0.1 0 0.5 0 0.6-0.1 0.1 0 0.1 0 0.1 0l0.1-0.1c0 0 0 0 0 0q0.1 0 0.2-0.1 0-0.1 0.1-0.1c0-0.1 0 0 0 0q0 0 0 0z"/>
		<path fill-rule="evenodd" class="s0" d="m18.7 7.5v0.4q0 0.1 0 0.3h2.1q0 0.1 0 0.2l-0.1 0.1c0 0 0-0.1 0 0l-0.2 0.2c0 0 0 0 0 0l-0.1 0.2q0 0 0 0-0.1 0.1-0.1 0.1l-0.1 0.2q-0.1 0.1-0.1 0.2h-0.1c0 0.1 0 0 0 0.1q-0.1 0-0.1 0.1 0 0-0.1 0.1l-0.2 0.3q0 0 0 0 0 0 0 0.1l-0.5 0.6c0 0 0 0 0 0l-0.3 0.4q0 0.1 0 0.1c0 0 0 0 0 0-0.1 0-0.1 0.1-0.1 0.1q0 0.1 0 0.2 0 0.2 0 0.4h3.2q0-0.2 0-0.3c0-0.1 0-0.3 0-0.3-0.1 0-2 0-2.2 0-0.1-0.1-0.1-0.1-0.1-0.2 0 0 0 0 0.1 0 0 0 0 0 0 0v-0.1q0 0 0 0l0.2-0.2q0 0 0 0 0 0 0-0.1h0.1q0-0.1 0-0.1l0.4-0.5c0 0 0 0 0 0l0.2-0.3q0 0 0-0.1h0.1q0-0.1 0.1-0.2 0 0 0 0l0.5-0.7q0 0 0 0l0.4-0.5q0 0 0 0 0 0 0 0c0.1-0.1 0.1 0 0.1-0.2q0-0.2 0-0.3v-0.2c0 0 0 0-0.1-0.1 0 0-0.2 0-0.2 0-0.3 0-2.7 0-2.8 0z"/>
		<path fill-rule="evenodd" class="s0" d="m19 5.6q0-0.1-0.1-0.1c0 0.1 0 0.2 0 0.3 0 0 0 0.1 0 0.2 0 0-0.1 0-0.1 0.1 0.1 0 0.1 0.1 0.1 0.1l0.1 0.1c0.1 0 0.1 0 0.1 0l0.2 0.1c0 0 0 0 0.1 0 0.1 0 0 0.1 0.2 0.1 0 0 0 0 0 0 0.1 0 0.3 0 0.4 0 0.2 0 0.4 0.1 0.7 0q0 0 0.1 0 0 0 0.1 0c0 0 0 0 0.1 0 0 0 0 0 0-0.1 0.1 0 0.2 0 0.3-0.1q0.1 0 0.1-0.1l0.1-0.1c0 0 0 0 0 0h0.1c0.1-0.1 0.1-0.2 0.1-0.2q0.1 0 0.1-0.1v-0.2c0 0 0 0 0 0 0.1-0.2 0.1-0.6 0-0.7v-0.2c0 0 0 0 0 0-0.1 0 0 0-0.1-0.1 0 0 0 0 0 0q0 0 0 0l-0.4-0.3c0 0 0 0 0 0q0 0 0 0l-0.3-0.2c0 0 0 0-0.1 0 0 0 0 0-0.1 0 0-0.1-0.1-0.1-0.1-0.1q0 0-0.1 0c0 0 0 0 0 0q-0.1 0-0.1 0c-0.1-0.1-0.1-0.1-0.1-0.1-0.1 0-0.1 0-0.2 0q0 0 0 0c0 0 0 0-0.1 0q0 0 0-0.1c-0.1 0 0 0-0.1 0-0.1 0 0 0-0.1 0l-0.2-0.1q0 0 0 0 0-0.1-0.1-0.2c0-0.1 0 0 0-0.4 0 0 0 0 0 0 0-0.1 0 0 0.1-0.1 0-0.1 0.1-0.1 0.2-0.2 0.1 0 0 0 0.1 0 0.1 0 0-0.1 0.2-0.1 0.1 0 0.5 0 0.7 0.1 0 0 0 0 0.1 0 0 0 0 0 0.1 0 0 0 0 0 0 0q0.1 0.1 0.1 0.1c0.1 0 0 0 0.1 0 0 0 0 0 0 0 0.1 0 0.1 0 0.1 0v0.1q0 0 0.1 0c0.1 0 0.1 0.1 0.1 0.1 0-0.1 0-0.3 0-0.4 0 0 0.1 0 0.1-0.1 0-0.2 0-0.1-0.1-0.2h-0.1q0-0.1-0.1-0.1c0 0 0 0-0.1 0 0-0.1 0 0 0-0.1-0.1 0 0 0-0.1 0q0 0 0 0c-0.1 0 0 0-0.1 0q0 0-0.1 0c0-0.1 0-0.1 0-0.1q-0.1 0-0.1 0c-0.1 0-0.1 0-0.1 0-0.1 0-0.1 0-0.2 0-0.2 0-0.1 0-0.2 0 0 0 0 0 0 0 0 0-0.1-0.1-0.1 0q0 0 0 0 0 0-0.1 0 0 0-0.1 0 0 0-0.1 0c-0.1 0 0 0-0.1 0-0.1 0-0.1 0-0.2 0.1q0 0 0 0c-0.1 0 0 0-0.1 0 0 0 0 0 0 0-0.1 0 0 0-0.1 0l-0.2 0.2c-0.1 0 0 0-0.1 0.1l-0.2 0.2-0.1 0.1c0 0.1 0 0.1 0 0.2 0 0 0 0 0 0.1q0 0.1 0 0.1c-0.1 0.1-0.1 0.1-0.1 0.2l0.1 0.4 0.2 0.3q0 0 0.1 0.1 0.1 0.1 0.2 0.1c0 0 0 0 0.1 0 0 0.1 0 0.1 0.1 0.1q0 0 0 0c0.1 0 0 0 0.1 0q0 0.1 0.1 0.1c0 0 0 0 0 0q0.1 0 0.1 0c0 0 0 0 0 0q0.1 0 0.1 0 0 0 0.1 0.1 0 0 0.1 0c0.1 0 0 0 0.1 0 0 0 0 0 0.1 0q0 0.1 0.1 0.1c0 0 0 0 0.1 0 0 0 0 0 0.1 0 0.1 0.1 0.1 0.1 0.2 0.1l0.1 0.1 0.1 0.1c0.1 0.1 0 0.1 0.1 0.2 0 0.1 0 0.1 0 0.2q0 0.1-0.1 0.1 0 0 0 0 0 0.1 0 0.1 0 0 0 0 0 0 0 0c-0.1 0.1 0 0-0.1 0.1 0 0-0.1 0.1-0.2 0.1 0 0 0 0 0 0-0.1 0 0 0-0.1 0.1q0 0 0 0c-0.1 0 0 0-0.2 0-0.1 0-0.2 0-0.3 0q-0.2 0-0.4 0c0 0 0 0 0 0-0.1-0.1-0.1 0-0.1-0.1-0.1 0-0.1 0-0.2 0 0 0 0 0-0.1 0v-0.1c-0.1 0-0.1 0-0.2 0 0 0 0 0 0 0l-0.1-0.1q-0.1 0-0.1 0z"/>
		<path fill-rule="evenodd" class="s2" d="m12.8 3.5q0.1 0 0.1 0l0.4-0.1c0 0 0 0 0 0 0.1-0.1 0.1 0 0.1-0.1 0 0 0 0 0.1 0 0 0 0 0 0 0l0.1-0.1q0 0 0.1 0c0.1-0.1 0.1-0.2 0.2-0.3 0.1-0.1 0.1-0.1 0.2-0.3 0 0 0 0 0 0l0.1-0.3c0-0.1 0-0.4 0-0.4 0-0.1-0.1-0.1-0.1-0.1q0-0.1 0-0.1c0-0.1 0 0 0-0.1q-0.1-0.2-0.3-0.4 0 0 0 0l-0.1-0.2c-0.1 0-0.3-0.2-0.3-0.2-0.1 0-0.1 0-0.2 0 0-0.1 0-0.1-0.1-0.1-0.1 0-0.1 0-0.1 0-0.1 0-0.4 0-0.4 0-0.1 0-0.1 0-0.2 0q0 0 0 0l-0.3 0.2-0.4 0.2-0.1 0.2-0.2 0.3c0 0.1 0 0.1 0 0.2-0.1 0.1-0.1 0.2-0.1 0.3 0 0.2 0 0.1 0.1 0.3q0 0 0 0.1 0 0 0 0 0 0.1 0 0.1l0.2 0.2c0 0.1 0 0.1 0 0.1l0.2 0.2c0.1 0.1 0.2 0.2 0.3 0.2l0.1 0.1c0 0 0 0 0 0 0.1 0 0.1 0 0.1 0 0.1 0 0 0 0.1 0 0.1 0.1 0.2 0.1 0.4 0.1z"/>
		<path fill-rule="evenodd" class="s1" d="m14.1 4.2c0 0 0 0 0 0q-0.1 0.1-0.2 0.2l-0.4 0.2q0 0-0.1 0l-0.2 0.2q0 0 0 0l-0.3 0.1q0 0 0 0l-0.2 0.1c0 0 0 0 0 0l-0.4 0.2q-0.1 0.1-0.1 0.1l-0.1 0.1q-0.1 0-0.1 0 0.1 0 0.1 0.1 0 0 0.1 0c0 0 0 0 0.1 0l0.2 0.1c0.1 0 0.1 0 0.2 0h0.1c0 0 0 0 0.1 0 0.1 0.1 0.3 0.1 0.4 0.1 0.1 0 0.4 0 0.5 0q0.1 0 0.2-0.1c0 0 0 0 0.1 0q0 0 0.1 0 0 0 0.1 0 0 0 0.1 0c0-0.1 0-0.1 0.1-0.1 0 0 0 0 0.1 0 0 0 0 0 0-0.1h0.1q0.1 0 0.1 0 0 0 0.1-0.1 0 0 0 0h0.1q0.1-0.1 0.1-0.1 0 0 0 0l0.4-0.3q0.1-0.1 0.3-0.2 0 0 0 0v-0.1q0 0 0 0 0 0 0 0h0.1c0.1-0.2 0.2-0.2 0.3-0.4 0 0 0 0 0 0 0-0.1 0 0 0-0.1q0 0 0.1 0l0.2-0.4c0 0 0 0 0 0l0.1-0.2q0 0 0 0l0.1-0.1c0-0.1 0-0.1 0-0.1 0.1-0.1 0-0.1 0.1-0.1 0-0.1 0-0.1 0-0.1 0-0.1 0 0 0-0.1-0.2 0-0.5 0-0.7 0q-0.3 0-0.6 0c-0.2 0-0.1 0-0.2 0.1v0.1q0 0 0 0l-0.1 0.1q-0.1 0.1-0.1 0.2l-0.2 0.1q0 0.1-0.1 0.1l-0.1 0.1c-0.1 0.1-0.1 0.1-0.2 0.2q0 0 0 0 0 0 0 0c-0.1 0 0 0-0.1 0v0.1c-0.1 0-0.1 0-0.1 0 0 0 0 0-0.1 0 0 0 0 0.1-0.1 0.1z"/>
		<path fill-rule="evenodd" class="s1" d="m33.5 2.4v0.7c0 0.1 0 0-0.2 0h-0.4c0 0.1 0 0.6 0 0.7 0 0.1 0 0.1 0.3 0.1 0.3 0 0.3-0.1 0.3 0.2 0 0.2-0.1 1.6 0 1.7 0 0 0 0 0 0.1q0 0 0 0 0 0 0 0.1c0.1 0.1 0.1 0 0.1 0.1 0 0.1 0 0 0 0.1 0.1 0.1 0.1 0 0.1 0.1q0 0 0 0c0.1 0.1 0.1 0.1 0.2 0.1l0.1 0.1c0.1 0 0.1 0 0.1 0 0.1 0.1 0.1 0 0.1 0.1 0.1 0 0.1 0 0.1 0h0.5c0.1 0 0.1 0 0.2 0 0.1-0.1 0-0.1 0.1-0.1 0.1 0 0.2 0 0.2-0.1v-0.7c-0.1 0-0.2 0.1-0.2 0.1-0.1 0-0.1 0-0.1 0-0.2 0.1-0.4 0-0.5 0q0-0.1 0-0.1c-0.1 0-0.1 0-0.1-0.1q0 0-0.1-0.1c0 0 0 0 0-0.2v-1.3c0-0.1 0-0.1 0.3-0.1h0.5c0.1 0 0.1 0 0.1-0.4 0-0.1 0-0.3 0-0.3-0.2-0.1-0.6-0.1-0.8-0.1-0.1 0-0.1 0.1-0.1 0 0-0.1 0-0.8 0-0.8 0 0-0.7 0-0.8 0-0.1 0 0 0 0 0.1z"/>
		<path fill-rule="evenodd" class="s0" d="m12.3 5.3c0 0 0 0-0.1 0v0.1c0.2 0.1 0.2 0.1 0.3 0.1 0.1 0 0.1 0 0.2 0 0.1 0.1 0 0.1 0.2 0.1 0.1 0 0 0 0.2 0 0.1 0 0.8 0 0.8 0 0.1 0 0.1 0 0.2 0v-0.1c0.1 0 0.1 0 0.2 0 0 0 0 0 0.1 0 0 0 0 0 0.1-0.1 0 0 0 0 0 0q0.1 0 0.1 0 0 0 0 0 0 0 0 0h0.1q0.1-0.1 0.1-0.1c0 0 0 0 0.1 0l0.2-0.2c0 0 0 0 0 0q0.1 0 0.2-0.1c0 0 0 0 0 0q0.1 0 0.1-0.1l0.4-0.4q0.2-0.1 0.3-0.3l0.2-0.3c0.1 0 0-0.1 0.1-0.1q0 0 0 0v-0.1c0.1 0 0.1 0 0.1 0q0-0.1 0-0.1c0 0 0 0 0 0l0.1-0.1c0 0-0.1 0.1 0 0v-0.2q0.1 0 0.1 0c0-0.1 0 0 0-0.1 0-0.1 0 0 0-0.1q0 0 0-0.1l-0.3 0.1c-0.3 0-0.7-0.1-0.9 0-0.1 0-0.1 0-0.1 0q0 0 0 0.1h-0.1q0 0 0 0 0 0.1 0 0.1c0 0-0.1 0.2-0.2 0.2 0 0 0 0 0 0.1h-0.1q0 0.1 0 0.1 0 0 0 0l-0.2 0.1c0 0.1-0.2 0.2-0.3 0.3 0 0-0.1 0-0.1 0l-0.1 0.1q0 0 0 0c0 0 0 0 0 0h-0.1q0 0 0 0c0 0.1 0 0-0.1 0.1l-0.1 0.1c0 0 0 0 0 0-0.1 0 0 0-0.1 0 0 0 0 0 0 0l-0.4 0.3c0 0 0 0 0 0q-0.1 0-0.1 0l-0.1 0.1q0 0 0 0c-0.1 0 0 0-0.1 0-0.1 0.1-0.1 0.1-0.1 0.1-0.1 0-0.1 0.1-0.2 0.1q0 0-0.1 0c0 0.1 0 0 0 0.1h-0.1q0 0-0.1 0 0 0.1-0.1 0.1l-0.1 0.1q0 0 0 0c-0.1 0 0 0-0.1 0z"/>
		<path fill-rule="evenodd" class="s0" d="m33.5 2.6v0.5c0 0.2-0.2 0.1-0.3 0.1h-0.2q0 0 0 0c0 0.1 0 0.6 0 0.6 0.1 0 0.2 0 0.4 0 0.1 0 0.1 0.1 0.1 0.3v1.2c0 0.1 0 0.2 0 0.4 0 0.2 0.1 0.1 0.1 0.2 0 0 0 0 0 0.1 0.1 0.1 0 0 0 0.1 0.1 0 0 0 0.1 0q0 0 0 0c0 0.1 0 0 0 0.1 0 0 0 0 0 0 0 0 0 0 0 0l0.1 0.1c0.1 0 0 0 0.1 0q0 0.1 0 0.1 0 0 0.1 0c0 0 0 0 0.1 0 0 0.1 0 0.1 0.1 0.1 0 0 0 0 0 0q0.1 0 0.1 0c0.2 0 0.1 0 0.3 0 0.2 0 0.1 0 0.2 0 0.1 0 0.3 0 0.4-0.1q0 0 0 0 0 0 0-0.1 0 0 0 0 0-0.1 0-0.2 0-0.1 0-0.2c-0.2-0.1 0 0-0.2 0q-0.2 0-0.3 0c0 0-0.1 0-0.1 0h-0.1c0-0.1 0-0.1 0-0.1 0 0 0 0-0.1-0.1h-0.1c0-0.1 0 0 0-0.1 0 0 0 0 0-0.1q0 0 0 0 0 0-0.1 0c0-0.1 0-0.4 0-0.6q0-0.5 0-1c0-0.1 0.2-0.1 0.4-0.1q0.3 0 0.5 0c0-0.2 0-0.3 0-0.6h-0.6q-0.2 0-0.3 0 0 0 0-0.1c0-0.1 0-0.6 0-0.7h-0.4c-0.3 0-0.3 0-0.3 0.1q0 0 0 0.1z"/>
		<path fill-rule="evenodd" class="s1" d="m30.9 9v-0.3c0-0.2 0.1-0.1-0.2-0.1h-0.6c0 0.9 0 1.9 0 2.8v0.4c0 0.2-0.1 0.2 0.3 0.2h0.5c0 0 0 0 0-0.1v-1.7c0-0.1 0-0.2 0-0.2 0.1-0.2 0-0.1 0.1-0.2 0 0 0.1-0.1 0.2-0.2 0 0 0 0 0.1-0.1q0 0 0 0c0.1 0 0.2-0.1 0.2-0.1q0 0 0 0c0.2 0 0.2 0 0.3 0h0.2c0.1 0 0.1-0.1 0.1-0.3v-0.6q0 0 0 0c0 0 0 0-0.1 0h-0.3c0 0 0 0-0.1 0.1q0 0-0.1 0c0 0 0.1 0 0 0-0.1 0-0.1 0-0.1 0q0 0 0 0.1h-0.2q0 0 0 0v0.1c-0.1 0-0.1 0.1-0.2 0.1v0.1q0 0.1-0.1 0z"/>
		<path fill-rule="evenodd" class="s1" d="m28.1 3.8c-0.1 0-0.2 0-0.2 0l-0.2 0.1q0 0 0 0 0 0 0 0 0 0 0 0h-0.1q-0.1 0.1-0.2 0.2l-0.1 0.1c0 0.1 0 0.1 0 0.1 0 0.1 0 0 0 0 0 0.1 0 0 0 0.1 0 0 0 0 0 0.1-0.1 0.2-0.1 0.1-0.1 0.5q0 0 0 0.1c0.1 0 0 0 0.1 0.1 0 0.1 0 0 0 0.1 0 0.1 0 0 0 0.1 0 0 0 0 0 0l0.2 0.3q0 0 0 0 0 0 0 0h0.1q0 0 0 0 0 0 0 0l0.1 0.1c0.1 0.1 0 0 0.1 0.1 0 0 0 0 0.1 0 0 0 0 0 0.1 0 0 0.1 0.4 0.1 0.5 0 0 0-0.1 0 0.1 0 0 0 0 0 0 0 0.1-0.1 0.1 0 0.1-0.1l0.1-0.1c0.1 0 0.1 0 0.1 0l0.1-0.1q0 0 0 0 0 0 0 0c0 0 0 0 0 0l0.1-0.2c0-0.1 0-0.1 0-0.1 0.1-0.1 0.1 0 0.1 0 0-0.1 0-0.1 0-0.1 0-0.1 0 0 0-0.1q0 0 0-0.1v-0.4c0 0 0 0 0-0.1 0-0.2 0 0-0.1-0.1 0-0.1 0-0.2 0-0.2q0 0 0 0c-0.1-0.1 0 0-0.1 0v-0.1c-0.1-0.1-0.2-0.1-0.2-0.2h-0.1q0 0 0 0c-0.1-0.1-0.2-0.1-0.2-0.1-0.1 0-0.2-0.1-0.4 0z"/>
		<path fill-rule="evenodd" class="s1" d="m37.8 9.2h-0.2q0 0-0.1 0 0 0 0 0.1c0 0 0 0 0 0-0.1 0-0.1 0-0.2 0.1-0.1 0.1-0.1 0.1-0.1 0.2q0 0-0.1 0 0 0 0 0.1c0 0.1-0.1 0-0.1 0.3q0 0.2 0 0.5c0 0 0 0.2 0 0.3 0.1 0.1 0.1-0.1 0.1 0.1 0 0 0 0 0 0.1h0.1c0.1 0.1 0.1 0.1 0.1 0.2 0.1 0.1 0.1 0 0.1 0.1 0.1 0 0.1 0 0.2 0 0.1 0.1 0.1 0 0.2 0.1 0.1 0 0.1 0 0.1 0q0.1 0 0.3 0l0.2-0.1 0.2-0.2q0 0 0 0 0 0 0.1-0.1c0-0.1 0 0 0-0.1l0.1-0.1c0 0 0 0 0 0q0.1-0.1 0.1-0.2c0-0.1 0 0 0-0.3 0 0 0-0.3 0-0.3 0-0.1 0 0 0-0.1q0 0 0 0c0-0.1 0-0.1 0-0.1q-0.1-0.1-0.1-0.1l-0.2-0.2c0-0.1 0-0.1-0.1-0.1 0-0.1-0.1-0.1-0.2-0.1-0.1-0.1 0-0.1 0-0.1h-0.3q-0.1 0-0.2 0z"/>
		<path fill-rule="evenodd" class="s0" d="m31.5 3.6c-0.1 0 0 0-0.1 0 0-0.5 0.2-0.5-0.4-0.5-0.1 0-0.4 0-0.4 0.1 0.1 0 0 0 0.2 0q0.1 0 0.2 0c0.1 0 0.2 0 0.4 0 0 0 0 0 0 0q0 0 0 0c0 0.2 0 0.3 0 0.4q0 0 0 0v0.1c-0.1-0.1-0.1-0.2-0.1-0.2 0-0.1 0.1-0.3 0-0.3-0.1 0-0.6 0-0.7 0q0 0.4 0 0.8v1.7q0 0.4 0 0.8c0.1 0 0.6 0 0.7 0 0-0.2 0-1.8 0-1.9 0.1-0.1 0.1-0.1 0.1-0.1 0-0.1 0 0 0-0.1 0 0 0 0 0.1-0.1 0-0.1 0 0 0-0.1q0 0 0 0h0.1c0.1-0.2 0.1-0.1 0.2-0.2q0 0 0 0 0 0 0 0c0 0 0 0 0.1 0 0-0.1 0-0.1 0-0.1h0.2c0.1 0 0.4 0 0.4 0 0-0.1 0-0.3 0-0.4q0-0.2 0-0.3c-0.2-0.1-0.3 0-0.4 0 0 0 0 0-0.1 0l-0.1 0.1c-0.1 0 0 0-0.1 0l-0.1 0.1q0 0 0 0 0 0 0 0 0 0 0 0l-0.1 0.1c-0.1 0.1-0.1 0.1-0.1 0.2 0 0-0.1-0.1 0-0.1z"/>
		<path fill-rule="evenodd" class="s1" d="m26.7 10.4c0.1 0.1 0 0 0 0.1l0.1 0.2c0 0 0 0 0 0 0 0 0 0.1 0.1 0.1l0.1 0.2 0.2 0.1q0 0 0.1 0c0 0 0 0 0 0l0.1 0.1c0.1 0 0.4 0 0.5-0.1h0.2c0 0 0.2-0.2 0.2-0.2q0 0 0.1 0 0-0.1 0-0.1 0 0 0.1-0.1c0 0 0 0 0 0l0.1-0.1c0-0.1 0 0 0-0.1 0-0.1 0-0.1 0-0.1v-0.4c0-0.1 0-0.1 0-0.1q0 0 0-0.1c0-0.1 0 0-0.1-0.1 0 0 0 0 0 0 0-0.1 0 0 0-0.1 0 0 0 0-0.1-0.1l-0.2-0.2c0 0 0 0 0 0-0.1 0-0.1 0-0.1 0q0 0-0.1-0.1c0 0 0 0-0.1 0-0.1 0 0 0-0.3 0q-0.1 0-0.1 0c-0.1 0-0.1 0-0.2 0 0 0 0 0 0 0-0.1 0.1-0.1 0-0.1 0.1 0 0 0 0 0 0q-0.1 0-0.1 0c0 0.1 0 0-0.1 0.1 0 0 0 0-0.1 0.1l-0.1 0.1c0 0 0 0 0 0 0 0-0.1 0.1-0.1 0.2 0 0.1 0 0 0 0.1q0 0 0 0.1 0 0 0 0.1c0 0-0.1 0 0 0.1 0 0 0 0.2 0 0.2z"/>
		<path fill-rule="evenodd" class="s3" d="m28 3.9h-0.2c0 0 0 0-0.1 0.1 0 0 0-0.1-0.1 0q0 0 0 0 0 0 0 0l-0.1 0.1c-0.1 0.1 0 0.1-0.1 0.2l-0.1 0.1c0 0.2 0 0.1 0 0.2q0 0.1 0 0.1c-0.1 0.1 0 0.2 0 0.4 0 0.1 0 0 0 0.1q0 0 0 0c0.1 0.3 0.3 0.4 0.5 0.6 0 0 0 0 0.1 0 0 0 0 0 0.1 0q0 0.1 0.1 0.1c0.1 0 0.2 0 0.3 0q0.1 0 0.1-0.1h0.1c0.1 0 0 0 0.1 0 0 0 0 0 0-0.1h0.1q0 0 0 0c0.1-0.1 0 0 0.1-0.2 0.1 0 0 0 0.1 0v-0.1c0.1 0 0 0 0.1-0.1q0 0 0 0c0 0 0 0 0-0.1 0 0 0 0 0-0.1 0-0.1 0.1-0.3 0-0.4q0-0.1 0-0.1c0-0.1 0-0.1 0-0.1 0-0.1 0-0.1 0-0.1-0.1-0.1 0-0.1-0.1-0.1 0-0.1 0-0.1-0.1-0.1l-0.2-0.2-0.1-0.1c-0.1 0-0.1 0-0.1 0-0.1-0.1-0.4-0.1-0.5 0z"/>
		<path fill-rule="evenodd" class="s0" d="m30.9 9.1c0-0.1-0.1 0-0.1-0.2q0.1-0.1 0-0.2c0-0.1-0.6-0.1-0.6 0v3.1q0 0.1 0 0.1c0 0.1 0 0 0.3 0h0.3c0.1 0 0.1 0 0.1-0.2 0-0.4 0-1 0-1.4 0-0.1 0-0.3 0-0.4 0-0.1 0 0 0.1-0.1q0-0.1 0-0.2c0.1-0.1 0.1 0 0.2-0.1q0 0 0 0c0-0.1 0 0 0.1 0q0 0 0 0 0-0.1 0-0.1c0 0 0 0 0 0 0.1 0 0 0 0.1 0 0.1 0 0.1-0.1 0.1-0.1 0.1 0 0.1 0 0.1 0 0.1 0 0 0 0.1 0 0 0 0.3 0 0.3 0v-0.7c0 0-0.1 0-0.2 0 0 0 0 0-0.1 0q0 0-0.1 0c0 0 0 0 0 0-0.1 0.1-0.1 0-0.1 0.1-0.1 0-0.1 0-0.2 0q0 0.1 0 0.1c0 0 0-0.1-0.1 0q0 0 0 0 0 0 0 0l-0.1 0.2c0 0 0 0 0 0-0.1 0.1-0.1 0.1-0.2 0.1z"/>
		<path fill-rule="evenodd" class="s3" d="m37.1 10v0.6c0 0.1 0 0.2 0 0.3 0.1 0 0.1 0 0.1 0l0.1 0.1q0 0.1 0 0.1l0.1 0.1c0.1 0 0.1 0 0.2 0 0.1 0.1 0 0 0.1 0.1 0.1 0 0.3 0 0.4 0 0.1 0-0.1 0 0.1 0 0.1 0 0 0 0.1-0.1 0 0 0 0 0.1 0 0 0 0 0 0-0.1 0.1 0 0.3-0.1 0.3-0.2l0.1-0.1c0-0.1 0 0 0-0.1q0 0 0-0.1c0 0 0 0.1 0-0.1 0.1-0.1 0.1 0 0.1-0.3l-0.1-0.3c0-0.1 0-0.1-0.1-0.2l-0.2-0.3-0.2-0.1h-0.2c-0.1-0.1-0.2-0.1-0.3-0.1-0.1 0.1-0.1 0.1-0.2 0.1 0 0 0 0 0 0-0.1 0-0.1 0-0.2 0.1-0.1 0 0 0-0.1 0.1-0.1 0.1 0 0-0.1 0.1 0 0 0 0 0 0.1 0 0-0.1 0-0.1 0.1q0 0.1 0 0.2z"/>
		<path fill-rule="evenodd" class="s3" d="m23.4 4.4c0 0.3 0 0.6 0 0.9 0 0.1 0 0.1 0 0.1l0.1 0.1c0 0.1 0 0.1 0.1 0.2h0.1q0 0 0 0c0.1 0.1 0.1 0.1 0.1 0.1 0.1 0 0.1 0 0.1 0.1 0.1 0 0.1 0 0.2 0 0.4 0 0.2 0 0.3 0q0.1 0 0.1-0.1c0.2 0 0.3-0.1 0.4-0.2v-0.1q0 0 0 0 0 0 0.1 0v-0.1c0-0.1 0-0.1 0.1-0.1 0-0.1-0.1 0 0-0.1 0 0 0 0 0 0 0-0.2 0-0.1 0-0.3q0-0.1 0-0.2c0-0.1 0-0.1 0-0.2 0-0.1 0 0 0-0.1q-0.1-0.2-0.2-0.3-0.1 0-0.1-0.1c-0.2-0.1-0.1 0-0.2-0.1-0.1 0-0.1 0-0.1 0-0.1 0 0 0-0.1-0.1-0.1 0-0.4 0-0.5 0.1 0 0 0 0-0.1 0 0 0 0 0 0 0-0.1 0-0.2 0.1-0.2 0.2h-0.1q0 0.1 0 0.1c-0.1 0 0 0 0 0l-0.1 0.2z"/>
		<path fill-rule="evenodd" class="s3" d="m28.5 10.2c0-0.1 0-0.3 0-0.3 0-0.1 0-0.1 0-0.1-0.1-0.1-0.2-0.3-0.3-0.4 0 0-0.1-0.1-0.2-0.1-0.2-0.1-0.1-0.1-0.4 0-0.3 0-0.2 0-0.3 0 0 0-0.1 0-0.1 0.1-0.1 0-0.1 0-0.1 0 0 0-0.2 0.2-0.2 0.3-0.1 0 0 0-0.1 0 0 0 0 0 0 0.1 0 0 0 0 0 0.1 0 0.1-0.1 0-0.1 0.3 0 0.1 0 0.1 0.1 0.2q0 0 0 0.1 0 0.1 0.1 0.2l0.1 0.1q0 0 0 0 0.1 0.1 0.2 0.2c0 0 0.1 0 0.1 0 0.1 0 0 0.1 0.1 0.1 0.1 0 0.1 0 0.2 0 0.1 0 0.1 0 0.2 0 0.1 0 0.1-0.1 0.2-0.1 0 0 0 0 0.1 0q0 0 0.1-0.1c0.1-0.1 0 0 0.1-0.1l0.1-0.1q0-0.1 0.1-0.1c0-0.1 0-0.1 0-0.1 0-0.1 0 0 0-0.1q0-0.1 0-0.2z"/>
		<path fill-rule="evenodd" class="s1" d="m4.2 11.9c0 0 0 0 0 0 0.1 0.1 0 0 0.1-0.1q0 0 0 0l0.1-0.1q0 0 0 0 0.1 0 0.1-0.1 0 0 0.1-0.1 0 0 0.1-0.1c0 0 0.3-0.3 0.4-0.4 0 0 0 0 0-0.1q0 0 0 0l0.3-0.3q0 0 0 0l0.3-0.3q0 0 0 0l0.1-0.2q0 0 0 0 0.1 0 0.1-0.1c0.1-0.1 0.2-0.2 0.3-0.3l0.1-0.1q0 0 0 0v-0.1q0.1 0 0.2-0.1l0.3-0.4c0 0 0 0 0 0q0.1-0.1 0.1-0.1l0.1-0.1c0-0.1 0 0 0-0.1q0.1 0 0.1-0.1h0.1q0 0 0 0 0 0 0 0v-0.1q0.1 0 0.1-0.1 0.1 0 0.2-0.1l0.1-0.1q0-0.1 0-0.1 0 0 0 0 0 0 0 0l0.1-0.2q0.1 0 0.1 0l0.2-0.2q0 0 0 0 0 0 0 0 0 0 0 0 0 0 0 0l0.1-0.2q0 0 0.1 0l0.2-0.2q0-0.1 0-0.1l0.2-0.3c0 0 0.1 0 0.1 0q0 0 0 0l0.1-0.1q0.1-0.1 0.1-0.2l0.6-0.7q0.1 0 0.1-0.1l0.1-0.1c0.1-0.1 0.1-0.1 0.2-0.2l0.1-0.1q0 0 0 0 0 0 0 0l0.1-0.2q0 0 0 0c0.1 0 0.1 0 0.2 0q0 0 0 0c0 0.1 0 0.1 0.1 0.1l0.2 0.1q0.1 0 0.1 0.1c0.1 0 0.3 0.1 0.4 0.2 0 0 0 0 0 0h0.1c0.1 0.1 0 0 0.1 0.1 0 0 0.2 0.1 0.2 0.1l0.2 0.1q0.1 0.1 0.1 0.1l0.2 0.1c0 0 0.1 0.1 0.1 0.1l0.3 0.1c0 0 0 0 0 0l0.1 0.1c0.1 0 0.2 0.1 0.3 0.1l0.4 0.3q0.1 0 0.1 0c0 0 0.1 0.1 0.1 0.1 0.1 0 0.1 0 0.1 0.1 0.1 0 0 0 0.1 0q0 0 0 0 0.1 0.1 0.2 0.1c0.1 0 0 0 0.1 0 0 0.1 0 0.1 0 0.1 0.1 0 0 0 0.1 0 0.1 0.2 0.1 0.1 0.2 0.2v0.1c0 0.1 0 0.1 0 0.1 0.1 0.3 0.1 0.1 0 0.3 0 0.1 0 0.1 0 0.1q0 0.1 0 0.1 0 0 0 0v0.1c-0.2 0.2-0.2 0.1-0.3 0.3h-0.1q0 0.1 0 0.1l-0.1 0.1q-0.1 0-0.1 0.1l-0.1 0.1q0 0 0 0l-0.1 0.1q0 0 0 0l-0.5 0.4q0 0.1-0.1 0.1l-0.1 0.1q0 0 0 0 0 0 0 0 0 0 0 0 0 0 0 0l-0.5 0.5q0 0 0 0l-0.1 0.1q-0.1 0-0.1 0l-0.2 0.2q0 0 0 0l-0.1 0.1q0 0 0 0v0.1c-0.1 0-0.2 0.1-0.2 0.2l-2-0.1q0 0 0.1-0.1 0 0 0.1 0l0.3-0.3q0-0.1 0-0.1 0 0 0 0 0 0 0 0 0 0 0 0l0.1-0.1c0.1-0.1 0.1 0 0.2-0.1l0.4-0.4c0 0 0 0 0-0.1 0.1 0 0.1 0 0.1 0 0 0 0 0 0.1-0.1q0 0 0 0l0.4-0.4c0.1 0 0.1 0 0.1 0q0 0 0 0l0.2-0.3q0 0 0 0l0.1-0.1q0.1 0 0.2-0.1l0.1-0.1q0 0 0.1-0.1l0.2-0.2c0 0 0 0.1 0 0q0 0 0 0c0 0 0 0 0 0-0.1 0-0.1 0-0.1 0.1l-0.3 0.2q-0.1 0.1-0.2 0.2l-0.1 0.1q0 0 0 0 0 0 0 0l-0.2 0.2c0 0 0 0 0 0l-0.2 0.1c-0.1 0.2-0.1 0.1-0.3 0.3q0 0 0 0 0 0 0 0l-0.1 0.2q-0.1 0-0.1 0 0 0 0 0 0 0 0 0 0 0 0 0l-0.1 0.1c0 0 0 0-0.1 0l-0.3 0.3q0 0 0 0 0 0 0 0l-0.2 0.3c-0.1 0 0 0-0.1 0q0 0 0 0l-0.4 0.4c0 0.1 0 0-0.1 0.1q0 0 0 0.1c0 0.1 0 0 0.2 0h0.8c0.4 0 0.7 0.1 1.1 0 0 0 0.1-0.1 0.2-0.2q0 0 0 0 0.1 0 0.1-0.1 0 0 0 0c0.1 0 0.1 0 0.1-0.1q0.1 0 0.1-0.1l0.3-0.2q0.1-0.1 0.1-0.2h0.1q0 0 0 0l0.1-0.1c0.1-0.1 0.1-0.1 0.2-0.2l0.1-0.1q0 0 0 0l0.2-0.2q0 0 0 0l0.5-0.4q0 0 0-0.1l0.4-0.3q0 0 0 0c0-0.1 0.1-0.1 0.1-0.2q0.1 0 0.1-0.1l0.1-0.1c0 0 0 0 0 0q0-0.1 0-0.1c0 0 0 0 0-0.1 0 0 0-0.2 0-0.2 0-0.1 0-0.1 0-0.2 0 0 0 0 0-0.1q-0.1 0-0.1 0c0 0 0-0.1 0-0.1q-0.1-0.1-0.3-0.2 0 0-0.1 0c0-0.1 0 0 0-0.1 0 0 0 0-0.1 0q0 0 0 0c0 0 0 0-0.1-0.1-0.1 0-0.1 0-0.1 0l-0.4-0.3q0 0 0 0l-0.4-0.2q0 0 0 0c-0.1 0-0.1 0-0.1-0.1 0 0 0 0 0 0q-0.1 0-0.1 0c0 0-0.1-0.1-0.2-0.1l-0.1-0.1c-0.1 0-0.1 0-0.1 0 0 0 0-0.1-0.1-0.1 0 0 0 0 0 0q-0.1 0-0.1 0 0 0 0-0.1-0.1 0-0.1 0l-0.2-0.1c-0.1-0.1-0.1-0.1-0.1-0.1q0 0 0 0c-0.1 0-0.1 0-0.1 0l-0.2-0.2q0 0 0 0 0 0 0 0 0 0-0.1 0 0 0 0 0 0 0-0.1 0l-0.2-0.1c0-0.1 0 0 0-0.1h-0.1c0-0.1-0.1-0.1-0.2-0.1q0 0-0.1-0.1 0 0 0 0 0 0 0 0l-0.2-0.1c-0.1 0-0.2 0.2-0.2 0.2q-0.2 0.2-0.3 0.3l-0.3 0.3c0 0.1-0.1 0.2-0.1 0.2l-0.1 0.1q0 0 0 0l-0.7 0.8c0 0 0 0-0.1 0.1q0 0 0 0-0.1 0.1-0.1 0.1l-0.1 0.1q-0.1 0.1-0.2 0.2l-0.3 0.5q-0.2 0.1-0.3 0.2l-0.3 0.4q0 0-0.1 0 0 0.1 0 0.1l-0.1 0.1q0 0 0 0l-0.1 0.1q0 0 0 0 0 0-0.1 0.1l-0.2 0.2q0 0 0 0l-0.3 0.3q0 0.1-0.1 0.1l-0.2 0.4q-0.1 0-0.1 0c0 0.1 0 0 0 0.1q-0.1 0-0.1 0.1l-0.3 0.4q-0.1 0-0.1 0l-0.2 0.2c0 0.1 0 0 0 0.1l-0.1 0.1c-0.1 0-0.2 0.2-0.3 0.3q-0.1 0.1-0.1 0.1l-0.1 0.1c0 0 0 0 0 0l-0.2 0.3c0 0-0.1 0.1-0.1 0.1z"/>
		<path fill-rule="evenodd" class="s1" d="m33.2 10q0.7 0 1.4 0c0.1 0 0.2 0 0.2 0q0.1 0 0.1-0.1 0-0.1 0-0.2c0-0.1 0-0.1 0-0.2-0.1 0-0.1 0-0.1-0.1q0 0 0 0c0 0-0.1 0-0.1-0.1 0 0-0.2-0.1-0.3-0.2 0 0 0.1 0-0.1 0-0.1 0-0.1-0.1-0.3 0 0 0 0 0-0.1 0 0 0-0.1 0-0.2 0.1 0 0 0-0.1-0.1 0q0 0 0 0c-0.1 0.1-0.1 0.1-0.2 0.1 0 0.1 0 0.1 0 0.1-0.1 0.1-0.1 0-0.1 0.1q0 0 0 0c0 0 0 0 0 0 0 0.1 0 0 0 0.1 0 0 0 0-0.1 0q0 0 0 0c0 0.1 0 0 0 0.1q0 0 0 0c0 0.2 0 0.1 0 0.2q0 0 0 0.1c0 0 0-0.1 0 0z"/>
		<path fill-rule="evenodd" class="s1" d="m23.1 11c0 0 0 0 0 0 0 0.1 0 0.1 0 0.1 0.1 0.1 0.1 0.1 0.1 0.1l0.1 0.1q0 0 0 0c0.1 0.1 0.1 0 0.1 0.1 0.1 0 0 0 0.1 0 0.1 0 0.3 0.1 0.4 0q0 0 0 0c0.1 0 0.1 0 0.1 0 0.1-0.1 0.1 0 0.1-0.1 0 0 0 0 0.1 0 0.1-0.1 0 0 0.1-0.1l0.2-0.2c0.1-0.1 0-0.1 0-0.2 0.1 0 0.1 0 0.1 0q0-0.1 0-0.2c0 0 0-0.2-0.2-0.2q-0.1 0-0.2 0h-0.5c-0.1 0-0.1 0-0.1 0-0.1 0-0.1 0-0.1 0 0 0.1 0 0.1-0.1 0.1-0.1 0-0.2 0.1-0.2 0.2h-0.1q0 0.1 0 0.1c0 0.1 0 0.1 0 0.2z"/>
		<path fill-rule="evenodd" class="s1" d="m37.1 11.9c0 0 0-0.1 0-0.2 0-0.1 0-0.1-0.1-0.1 0 0 0 0.3 0 0.3-0.1 0-0.6 0-0.7 0 0-0.1 0-2.1 0-2.3q0-0.6 0-1.1c0-0.2 0-1.1 0-1.2h0.7c0.1 0.1 0 0.7 0 0.8 0 0.2 0 0.8 0.1 0.9 0.1 0 0.1-0.1 0.3-0.2 0 0 0 0 0 0q0.1-0.1 0.2-0.1c0 0 0 0 0.1 0v-0.1c0.1 0 0.1 0 0.2 0 0 0 0 0 0 0 0.1 0 0.3 0 0.4 0 0.1 0 0.1 0 0.2 0 0.1 0 0 0 0.1 0q0 0 0 0.1c0.1 0 0.1 0 0.1 0 0.1 0 0.1 0.1 0.2 0.1q0.1 0 0.1 0.1l0.3 0.2q0 0 0.1 0.1c0 0.1 0 0.1 0.1 0.2 0 0.1 0 0 0 0.1 0 0.1 0 0 0.1 0.1q0 0 0 0.1c0 0 0 0 0 0.1 0 0 0 0 0 0.1 0 0 0 0 0 0.1 0.1 0.1 0.1 0.5 0 0.6 0 0.1 0 0.1 0 0.2l-0.1 0.2c0 0.1 0 0 0 0.1 0 0 0 0 0 0l-0.1 0.2q0 0 0 0-0.1 0.1-0.2 0.2 0 0-0.1 0.1l-0.1 0.1c-0.1 0.1-0.1 0-0.1 0.1q-0.1 0-0.1 0c0 0-0.1 0-0.1 0.1q-0.1 0-0.1 0c-0.1 0-0.1 0-0.1 0-0.1 0-0.1 0-0.1 0.1 0 0-0.5 0-0.6 0 0-0.1 0-0.1-0.1-0.1 0 0 0 0-0.1 0q0 0 0 0-0.1-0.1-0.2-0.2l-0.2-0.1q0 0 0 0c0 0 0 0-0.1-0.1v0.1c0.1 0 0.2 0.1 0.2 0.2q0.1 0 0.2 0.1 0 0 0 0c0 0 0 0 0.1 0 0 0 0 0.1 0.1 0.1q0 0 0 0c0 0 0 0 0.1 0 0.1 0 0.3 0 0.4 0 0.1 0 0 0 0.1 0q0.1 0 0.1 0c0.1 0 0.1 0 0.1 0 0.1 0 0.2-0.1 0.3-0.1 0 0 0 0 0 0 0.1-0.1 0 0 0.1-0.1l0.1-0.1q0 0 0 0 0 0 0 0l0.3-0.2q0.1-0.1 0.1-0.2 0.1-0.1 0.1-0.1c0 0 0 0 0-0.1h0.1q0 0 0-0.1 0-0.1 0-0.1l0.1-0.1c0 0 0 0 0-0.1q0-0.1 0-0.1c0-0.2 0-0.2 0-0.3 0-0.3 0-0.3 0-0.4 0-0.1 0-0.1 0-0.1-0.1-0.1 0-0.1 0-0.2-0.1 0-0.1 0-0.1 0 0 0 0 0 0-0.1 0 0 0 0 0 0v-0.1q-0.1 0-0.1 0v-0.1c0-0.1 0 0 0-0.1q-0.1 0-0.1 0v-0.1q0 0-0.1 0c-0.1-0.2-0.1-0.2-0.2-0.3 0 0 0 0 0 0q-0.1-0.1-0.2-0.1h-0.1q0-0.1-0.1-0.1c0 0 0 0-0.1 0 0-0.1-0.1 0-0.1-0.1q0 0-0.1 0c0 0-0.1 0-0.2 0 0 0-0.3 0-0.4 0 0 0 0 0 0 0.1q-0.1 0-0.2 0 0 0-0.1 0.1l-0.3 0.2c0 0 0 0-0.1 0 0-0.1 0-1.4 0-1.6-0.1-0.1-0.7-0.1-0.9 0 0 0 0 0.2 0 0.3v4.3c0 0.1 0.1 0.1 0.2 0.1q0.3 0 0.7 0c0-0.1 0 0 0-0.1z"/>
		<path fill-rule="evenodd" class="s1" d="m24.4 11.6q0 0 0 0c0 0 0-0.1 0 0q-0.1 0-0.1 0.1-0.1 0.1-0.2 0.1c0 0 0 0 0 0l-0.1 0.1c0 0 0 0-0.1 0-0.1 0.1-0.5 0.1-0.6 0.1-0.1-0.1-0.1-0.1-0.1-0.1q0 0-0.1 0c0 0 0 0 0 0-0.1 0-0.1 0-0.2-0.1h-0.1q-0.1-0.1-0.2-0.3l-0.1-0.1q0 0 0 0v-0.2q-0.1-0.2-0.1-0.3c0.1-0.2 0.1-0.1 0.1-0.2q0-0.1 0-0.1c0 0 0 0 0-0.1 0.1 0 0 0 0.1 0l0.1-0.2q0.1-0.1 0.1-0.1c0.1 0 0 0 0.1 0 0 0 0-0.1 0-0.1h0.1c0 0 0.1 0 0.1 0 0 0 0 0 0.1-0.1 0.1 0 0.1 0 0.2 0 0.2 0 0.3 0 0.4 0 0.2 0 0.5 0 0.6 0 0.1 0 0.1 0 0.1-0.1q0.1 0 0.1 0 0-0.1 0-0.2c0 0 0 0 0 0l-0.2-0.3-0.2-0.2c-0.1 0 0 0-0.1 0 0 0 0 0 0 0-0.1 0-0.2 0-0.2 0-0.1 0-0.4 0-0.5 0-0.1 0-0.1 0-0.2 0 0 0 0 0 0 0-0.1 0.1 0 0-0.1 0.1 0 0-0.1 0-0.1 0l-0.1 0.1c-0.1 0-0.1 0-0.1 0-0.1-0.1-0.1-0.5-0.1-0.6 0.1 0 0.1 0 0.1 0 0 0 0 0 0 0 0.1 0 0.1 0 0.1 0 0 0 0-0.1 0-0.1h0.2c0.1 0 0 0 0.1 0 0-0.1 0.1-0.1 0.1-0.1 0.1 0 0.1 0 0.2 0 0.1 0 0 0 0.1 0 0 0 0.4 0 0.5 0 0 0 0.1 0 0.1 0q0.1 0 0.1 0 0 0 0.1 0 0 0 0.1 0.1c0.1 0 0 0 0 0 0.1 0 0.1 0 0.1 0l0.4 0.2q0 0.1 0.1 0.2 0 0 0 0c0 0.1 0 0 0 0.1 0.1 0.1 0.1 0.1 0.1 0.1 0 0 0 0 0 0.1 0 0 0.1 0.1 0.1 0.3q0 0.4 0 0.7c0 0.3 0 1.4 0 1.5h-0.5c-0.2 0-0.1 0-0.2 0 0 0 0 0 0 0 0-0.1 0-0.3 0-0.3-0.1 0 0 0-0.1 0q0 0 0 0v0.3c0 0 0-0.3 0-0.3 0-0.1 0 0 0 0 0 0 0 0 0 0.3 0 0.1 0 0.1 0.4 0.1h0.3c0.2 0 0.1 0 0.1-0.4v-1.2c0-0.2 0.1-0.7 0-0.8 0-0.1 0-0.2 0-0.2 0-0.1 0-0.1-0.1-0.2q0 0 0 0l-0.1-0.1q0-0.1-0.1-0.2c0 0-0.1-0.1-0.1-0.1q-0.1 0-0.1 0 0 0 0-0.1l-0.2-0.1c0 0 0 0 0 0h-0.2q0 0-0.1 0c0-0.1 0-0.1-0.1-0.1q-0.1 0-0.2 0c-0.1 0-0.5 0-0.6 0-0.1 0.1-0.1 0.1-0.2 0.1 0 0-0.1 0-0.1 0 0 0 0 0-0.1 0-0.1 0.1 0 0.1-0.1 0.1 0 0 0 0-0.1 0l-0.1 0.1c-0.1 0.2 0 0.2 0 0.3v0.3c0 0.2 0 0.2 0.1 0.1 0 0 0 0 0 0l0.1-0.1c0 0 0 0 0 0h0.1c0 0 0 0 0.1 0q0-0.1 0.1-0.1 0 0 0.1 0c0 0 0 0 0.1 0 0.1 0 0.1-0.1 0.2-0.1 0.1 0 0.3 0 0.4 0 0 0 0 0.1 0 0.1q0 0 0.1 0c0 0 0 0 0.1 0q0.1 0 0.1 0.1 0 0 0 0c0 0 0.1 0 0.1 0v0.1c0 0 0 0 0.1 0.1 0 0.1 0 0.2 0 0.3-0.3 0-0.9 0-1.1 0q-0.1 0.1-0.2 0.1 0 0 0 0-0.1 0-0.1 0c-0.1 0.1 0 0-0.1 0-0.1 0.1 0 0.1-0.1 0.1-0.1 0-0.1 0-0.2 0.1q0 0 0 0 0 0 0 0l-0.1 0.1q0 0 0 0l-0.1 0.1q0 0 0 0c0 0 0 0.1-0.1 0.2 0 0 0 0 0 0 0 0.1 0 0.1 0 0.2q0 0 0 0c-0.1 0.1 0 0.3 0 0.4 0 0 0 0.1 0 0.1q0 0.1 0 0.1c0.1 0 0 0 0.1 0.1v0.1q0 0 0 0h0.1q0 0 0 0 0 0 0 0l0.2 0.2c0 0.1 0.1 0.1 0.2 0.1q0 0 0 0.1 0.1 0 0.1 0c0.1 0 0 0 0.1 0q0.1 0 0.1 0c0.1 0 0.1 0 0.2 0 0.1 0 0.1 0 0.2 0q0 0 0.1 0 0.1 0 0.2 0l0.4-0.3q0 0 0-0.1z"/>
		<path fill-rule="evenodd" class="s3" d="m33.3 9.9c0.4 0.1 1 0 1.4 0 0.2 0.1 0.1 0 0.1-0.2 0-0.1 0-0.1 0-0.2 0 0 0 0 0 0l-0.3-0.3q0 0 0 0 0 0 0 0c-0.1 0-0.2-0.1-0.3-0.1q-0.1 0-0.3 0l-0.3 0.2q0 0 0 0 0 0 0 0h-0.1c-0.1 0.1-0.1 0.2-0.1 0.2 0 0.1 0 0-0.1 0.1 0 0 0 0 0 0 0 0.1 0 0 0 0.1 0 0.1 0 0 0 0.1 0 0 0 0.1 0 0.1z"/>
		<path fill-rule="evenodd" class="s3" d="m24.5 10.5c-0.1 0-0.5-0.1-0.6 0q-0.1 0-0.2 0-0.1 0-0.1 0c-0.1 0 0 0-0.1 0-0.1 0-0.1 0-0.1 0.1q0 0 0 0c-0.1 0-0.2 0.1-0.2 0.1 0 0.1 0 0.1 0 0.1 0 0 0 0.2 0 0.2v0.1q0 0.1 0.1 0.1c0.1 0.1 0 0 0.1 0.1 0.1 0 0.1 0 0.1 0 0.1 0.1 0.4 0.1 0.6 0 0.1-0.1 0.2-0.2 0.3-0.3 0 0 0 0 0-0.1 0.1 0 0.1 0 0.1-0.1v-0.3z"/>
		<path fill-rule="evenodd" class="s1" d="m31.5 3.6c-0.1 0 0 0.1 0 0.1 0-0.1 0-0.1 0.1-0.2l0.1-0.1q0 0 0 0 0 0 0 0 0 0 0 0l0.1-0.1c0.1 0 0 0 0.1 0l0.1-0.1c0.1 0 0.1 0 0.1 0 0.1 0 0.2-0.1 0.4 0q0 0.1 0 0.3c0 0.1 0 0.3 0 0.4 0 0-0.3 0-0.4 0h-0.2c0 0 0 0 0 0.1-0.1 0-0.1 0-0.1 0q0 0 0 0 0 0 0 0c-0.1 0.1-0.1 0-0.2 0.2h-0.1q0 0 0 0c0 0.1 0 0 0 0.1-0.1 0.1-0.1 0.1-0.1 0.1 0 0.1 0 0 0 0.1 0 0 0 0-0.1 0.1 0 0.1 0 1.7 0 1.9-0.1 0-0.6 0-0.7 0q0-0.4 0-0.8v-1.7q0-0.4 0-0.8c0.1 0 0.6 0 0.7 0 0.1 0 0 0.2 0 0.3 0 0 0 0.1 0.1 0.2v-0.1q0 0 0 0c0-0.1 0-0.2 0-0.4q0 0 0 0c0 0 0 0 0 0-0.2 0-0.3 0-0.4 0q-0.1 0-0.2 0c-0.2 0-0.1 0-0.2 0 0 0 0 0 0 0q0 0 0 0c0 0.6 0 1.2 0 1.7v1.3c0 0.1-0.1 0.3 0 0.4 0 0 0.8 0 0.8 0 0-0.1 0-1.9 0-2 0-0.1 0.1-0.3 0.1-0.3 0.1-0.1 0.2-0.1 0.2-0.2l0.2-0.1q0 0 0 0c0.1 0 0.1 0 0.1 0 0.7 0 0.6 0 0.6-0.2v-0.6c0-0.1 0-0.1-0.1-0.1h-0.3c-0.1 0 0 0-0.2 0l-0.1 0.1c-0.1 0-0.1 0-0.1 0.1-0.1 0-0.3 0.2-0.3 0.3z"/>
		<path fill-rule="evenodd" class="s1" d="m23.4 4.4l0.1-0.2c0 0-0.1 0 0 0q0 0 0-0.1h0.1c0-0.1 0.1-0.2 0.2-0.2 0 0 0 0 0 0 0.1 0 0.1 0 0.1 0 0.1-0.1 0.4-0.1 0.5-0.1 0.1 0.1 0 0.1 0.1 0.1 0 0 0 0 0.1 0 0.1 0.1 0 0 0.2 0.1q0 0.1 0.1 0.1 0.1 0.1 0.2 0.3c0 0.1 0 0 0 0.1 0 0.1 0 0.1 0 0.2q0 0.1 0 0.2c0 0.2 0 0.1 0 0.3 0 0 0 0 0 0-0.1 0.1 0 0 0 0.1-0.1 0-0.1 0-0.1 0.1v0.1q-0.1 0-0.1 0 0 0 0 0v0.1c-0.1 0.1-0.2 0.2-0.4 0.2q0 0.1-0.1 0.1c-0.1 0 0.1 0-0.3 0-0.1 0-0.1 0-0.2 0 0-0.1 0-0.1-0.1-0.1 0 0 0 0-0.1-0.1q0 0 0 0h-0.1c-0.1-0.1-0.1-0.1-0.1-0.2l-0.1-0.1c0 0 0 0 0-0.1q0 0-0.1 0 0 0.1 0.1 0.1 0 0 0 0 0 0.1 0 0.2c0.1 0 0.1 0.1 0.1 0.1l0.2 0.1c0 0 0 0 0 0 0.1 0.1 0.1 0.1 0.2 0.1 0 0 0 0 0 0h0.1q0.1 0 0.1 0c0.1 0.1 0.3 0.1 0.4 0 0 0 0 0 0.1 0 0-0.1 0 0 0.1-0.1 0 0 0 0 0 0 0.1-0.1 0.1 0 0.2-0.1 0-0.1 0 0 0-0.1l0.1-0.1q0 0 0 0l0.1-0.2c0.1 0 0 0 0.1-0.1q0-0.1 0-0.1c0-0.2 0-0.1 0-0.3 0-0.1 0-0.1 0-0.1q0-0.1 0-0.2c0 0 0 0 0 0q-0.1 0-0.1-0.1c0 0 0 0 0-0.1q0 0 0 0c0-0.1 0-0.1 0-0.1-0.1-0.1-0.1-0.1-0.2-0.2q0 0 0 0h-0.1q-0.1-0.1-0.1-0.1l-0.2-0.1c0 0-0.1 0-0.1 0-0.1 0 0 0-0.2 0q-0.1-0.1-0.2 0-0.1 0-0.1 0l-0.3 0.1q0 0.1-0.1 0.1 0 0.1 0 0.1c-0.1 0.1-0.1 0-0.1 0.1 0 0 0 0 0 0q0 0.1 0 0.1c-0.1 0-0.1 0-0.1 0.1 0 0 0 0 0 0.2 0 0.1 0 0.6 0 0.6 0 0.1 0 0.1 0 0.1 0.1 0 0-0.2 0-0.2v-0.5q0-0.1 0-0.1c0-0.1 0-0.1 0.1-0.1z"/>
	</g>
</svg>